<mxfile host="app.diagrams.net" agent="Mozilla/5.0 (Windows NT 10.0; Win64; x64) AppleWebKit/537.36 (KHTML, like Gecko) Chrome/128.0.0.0 Safari/537.36" version="24.7.8">
  <diagram name="第 1 页" id="3vO_qgopDlhA9-PG6uTs">
    <mxGraphModel dx="792" dy="1131" grid="1" gridSize="10" guides="1" tooltips="1" connect="1" arrows="1" fold="1" page="0" pageScale="1" pageWidth="827" pageHeight="1169" math="0" shadow="0">
      <root>
        <mxCell id="0" />
        <mxCell id="1" parent="0" />
        <mxCell id="e5PW4hlqIi2uyE3xQMOH-1" value="" style="shape=image;verticalLabelPosition=bottom;labelBackgroundColor=default;verticalAlign=top;aspect=fixed;imageAspect=0;image=data:image/png,iVBORw0KGgoAAAANSUhEUgAAAMgAAADICAYAAACtWK6eAAAAAXNSR0IArs4c6QAAFm1JREFUeF7tnX+QW9V1x8+50v7Aa2MD8ZpJ3ImnIRBsYZchhQLJ1Ewy/UGpV5K7TNu0HZwQMgOxd20XOu1kJstMpgVSisymf4SQwrSl02ZrSUvSTH/kB52GkJAYU7y7AUoZ03ZwsINjG2OvLb17q/MsbbRiJV1d6b19Xn018+Y9Sefed++55/POuffddx8TPtAANFBXAwzdQAPQQH0NABBYBzTQQAMABOYBDQAQ2AA04KYBeBA3vSFVl2gAgHRJQ6OabhoAIG56Q6ou0QAA6ZKGRjXdNABA3PSGVF2iAQDSJQ2NarppAIC46Q2pukQDAKRLGhrVdNMAAHHTG1J1iQYASJc0NKrppgEA4qY3pOoSDQCQLmloVNNNAwDETW9I1SUaACBd0tCoppsGAIib3pCqSzQAQLqkoVFNNw0AEDe9IVWXaACANGnoZDK5mZk/R0Q3LjGbeNoY85l8Pv/UEqtXR6sDQBqoc2hoaL1SarqjGo9YZlrrDZOTkzMRK1ZkigNAGjRFMpl8lJk/EZnWCqAgxpgv5/P52wPIeklkCUAaNGMqlfo2EW1eEi1dvxJP5XK5m5Z4HZ2rB0AACABpYAMABIAAEADi5mERYrnpbSmlggeBB4EHgQdxu6bBg7jpbSmlggeBB4EHOZ89yPbt21fH4/FBY8waIlrDzHPH8p2IBojomDHmm1rrb42Pj3fsphc8SOu+YOPGjVd4nvdRZv4IEV1ERG8T0RuVzRhzWI6NMW/09fUd3r9//5HWzxJeitA9yNjYWO+bb745GIvFxNBXi8GXDV2MvfrYB4KIVIvqOERE32LmbxLRsw899JDznXAA0lzzmzZtutzzvGuNMR9h5o8S0drmqeZJ6GqAysc+RGWQDsdiMYHocLFYPDwzM3O2xfzbEu8IIPfcc8+K06dPD/b09Kz2PG+wbPSrKwZfc9WX38P8vEJEAsv3jDHP7dmz5wXbkwOQd2pKgCgWi9cw83UChDFmg60+OyQnsLzBzAJQxRsdNsb4EMViscNa6yOFQuHwSy+99Fa756wLyO7du9/leZ5/hddaDyqlVhtjxPj9vRh/5epvjBFXer58/pOZn9ZaP8fM+zKZzPP1Cg5AiKqAuIaIrieiG86Xhiain1Y8EjMLRALUEdkrpXyg5Pjs2bNHXn755Z8sVC8fkNHR0XVEtJ2Zb6gYPxEtP48U0U5Rf0BEz8mWyWQeqc6oBUBE2c6hXDuFb5BWruw23vodnfQNGzb8DjMLELIJEL0BlTFK2Z4seySB5rue542/+OKLB3nnzp3bjDF/FaWSLlZZMpnMPI9qA4gx5lP5fH4eWItV/trzJpPJO5j5i03K8w5AEolEN8xBa9pMzPxxHh0d/Tciks5V139aBcQYc28+nx+LsuKSyeQYM3+2QRkBSH3lfEMAMVFu4DDL5gBIKl8iJMwytnquZDKZZOYcAGlVc+fkAUiV3hwAuSnqT+SVn4iUkKneBx6kgXIACAABIADEzr3Cg5zTEzrpP7MXeJA2PAgR3ZrL5Sbs8FscqVQqNUxEX0GI5aZ/ANIGIMz8eDab3eam+nBSpdPpx4wxtwEQN30DkDYAkaS4D+JmeOdLqrABOUNER6s3Y8xRpdS83+R/+V32nucdjcfjcWPMx0szdz8fpGJb7YNUlUWmKUwFWTaHvBNE9C6LdIvRSb9bKfX3AwMDb546deri0l3rS4joYtmMMf5eKXVJ5bjyHxFV5C6wqFdHRFwBOV0xcmYWY5Y5L75By3G1wXue91Ot9dGBgYGj999///F2Sj0yMjLMzI3i6XaypzYAaeu8i5w4VECY+dYDBw601W+74oorViilLmZm2S6KxWJzYNVAJXMEBThnsGwAeak0r3+PMeaHFUO/7777BIjQP/JsiMzWDOrEAOScZoMcxerp6RlcrGdArrrqqosEINmY+YOlyYwjRHRFI3tqBsgTmUzm94IySJd8g7zzD0CCB2Rqaqojj1i42M5CaRKJxN8S0cfq5dcMkK2ZTCbbqcJ0Ih8A0gktzssj1BArgoCkiWivEyC1V9SON41DhgDEQWmNk3Q1IOWQsu58xIYeJGqA7N69e73neYE9d9FGiLWkngcJsg8iTyBOT093bN2ATlwuEonE0gBkdHRUppY3mrrdlr4cAZnI5XK3tnXigBKnUikZ8ZM76Y0+oXqQ0gTZe6empiL1iIAzIJ7n/dz4+Pj/BdR+1tmWR6+kI/WQdSIHwVYBYeZHstnspxxOFVqSdDr9RWPMHQ1OGDYgcnN1p+d5eXliLzRF1DnRxo0b12qt/9epD1JasuXuTCbz566VGBsbix8/fvxCY8zcFo/HL9Rar5TfiOhCpZS/L8uslGNm9n+r2mRpn8A/rQJijNmWz+cfD7xgbZwgmUzexsyPRQmQqrLIjeMTRCT3x2R/ogTPcWY+IZsxRvbHy/u5/zzPOxGLxU4UCoXjAwMDJ/bt21dwVVEikfjDRjegm41iyXkfMcZ8IxaLvR1Vw3ZVTm06B0DwPEinlN9ePnLjuhYuHzSBqwKhfNdan1BKCZADWmtZv6uRd8UDU9XtAkDOaSPITnp7HISf2saDhF+qRTojAAEgtaYHQKo00iogSqnf2Lt379cXiWer027duvVmrfU/RbQPYlWHxRSKIiDScTvJzCeNMbJWkWzx8hpNgeqqVUCwqol7czDztHTIy+uvrSjvZS220Gbq2pS+XUCkc1RrzPO+i6Frrf3fKrKV7/KbUupkoVA4GYvFTq5cufLk2NjYgmuv7tix45rS6o5/SUTX2VTMRaZVQOQcxpjIdtQtFmyQKoQ6zMvM3y+tbnjXgQMH9i3URps3b44fO3ZsudZ6uTHG3yrwVB/Lb0qpFbW/VYHWEehsAPFn8yql9heLRd+gxZhXrFghxjzrYoiuaUZGRn6Vmf/ZNX2zdC6AlPN80hizv1n+Yf7PzFeXVovcYnHOUAExxvza9PT0v1iUq2Mi69at6+/t7V2+bNkyHzyBSGst+llas3lHR0dXlddb7ZjyqjNqA5BAyhNSpqECEo/HL3r++eePhVS3pqfBbN6mKvqZAAA5p4sgh3kxm7cFg3QRxWxeF601TBOqB4kaIOULwtKYrCiVASAApNMacJ6sGLXp7iMjI/LSlu91WkGV/BBiBR9iaa1/aWZmRkayIvNxBiQWi2148MEHIzN3f3R0VJbybzh3ph2tA5DgATHGPDI9PR2ZGdAbNmxYL/dk6tlNs2HeezOZTBhz9+U9Jf19fX39s7Oz/fF4vL9YLPbLTSOtdT8zv4eZbyaiRgugtcOGn9YREFHuJ3O53DNtF6CDGaRSKXkb1JeIqNkr0kLtg0gVjTGPl+4f/TsRvaKUmtVan5Z9LBabPXPmzGxvb+/sCy+8ILcQvA6qZMGsEolEw2eMGgIiU42J6OnSU2ATpVmPr4uxKqX6y0bbb4wR4/U3rfUFsq/8Vruv/Fe+UyrGX731Ba0Im/wdAIn8K5QtXgIUOiA2bVGWkZvGAoq/GWNmmVm203Jc85v8f1r+11pX5ObSCITyXyUPrfW7lVLyMNmNpeeM5DGLBT/NPEgLdTn/RVsFxBizPZ/PfyHKNU8mk59m5vEGZYwyIIuuWgBS1QQOgER2mkmlWhbTTQBIAwwBCAABIADEzlPDgwQ/imXXEtGRCs2DVDpH1XullN/ZqnSeFpIpd8p6ZZKbxYhMW5oFIOEAUp7qLqNYsoStP8gjgzpVAzdzAz7VgzllOZkOX5ENfJVGG0AOGmO+JqNY1aMA1cYsowYyTOd5ngzRnZZ9T0/PbKFQmF21atVsp2b9jo6OBvp64lYBKT3rvCuXywW60kpbxBNRKpXaWVr84i8i1El/ampq6qZ26yXpL7vssr6VK1f2nzlzRm4LXNDT09PveZ5/m0BGWssjqRfIXkZfq0dWS/dj3k1Et5Te8bKuUVmaAfI3nuftHh8fl4XRFv1TemW1DMl9J6iCOABCuVwu8KtYO/VNpVLN3mIcah+ktADIh6anp59up06dSnv11VevLhQKDxLR79fLsxkg2zKZTKSWtYniXKzS+PsfEdGznWq4DuVzLTPfb5FXqIBEbbLi+vXrb1NK1V0W6bxaelQaO4qAWBhhlEW6GhBpGOe5WFGbrAhAAuEMgCyVtXkBCAAJQgPOHiRqs3l37dp1i9b6q0EoSfJ06aQHVZYQ8w3VgxDRb05NTX0txPo1PNX5Mpu3qb7Kz6P/tSi4qbCjAAA5p7ggH7ktLd/01Xg8/gdReS69Y7N5lVKvEZHyPE/Jnpnn7Su/GWNiIlP5v1pWjivftdb+cb3/5fcqmTXMfAMR/YKj7VslAyChACIneb604spzzPya1lozs7+5HhtjNBH5echxTX5edd5KKe15nsi9F7N5rbD4mVAbgOyK6LI/jW4QVioedojVYqssrniz+yCLW7qQz+4CCG4UhtxIIZ8OgFQpvFVA5AZhPp9/IOQ2a+l0yWTyniY3DOFBGmgUgLQHCJ4HaQnX808YgAAQeJA2PYg/m7e04LBMWNQyCiD7ysiBHNd+F5lG/8t/sVhMRhu8arnKcWUvMuX85W1Av93ohe+duDY5hFjwIG6Kf6K0dvCk1vonsVjMH600xij5yL7VYxkxldHTVtJprVcvxdm8kVr2J8oru1fsNmqP3EZp2Z8lN5t3x44dNyilApsq7eBBbs/n8192u4iGkyqZTH6CmR9tcLawQ6wbp6amvhtO7ZufBbN5m+toTqJVQErvIJ/O5XKJFk4RumgqlZpq8iRmqIBEbbq7NIjzXCzM5k3ZPMH4FDN/JpvNBubZXKhKp9M3GmM+V3pBzuYm6QEIZvPamZiDB7HLONpSAMQVkKjN5t2+ffuFsVhMVnsM5ANAzqk1yMmKs7OzK1955RV5d3kkPktmNq9oc2RkZJiZvxKUZgFI8IAw860HDhyYCKoNW823Y7N5mfm/jTFF2bTWxXg8XlRKFeRYfvM8r9jf3+//J8dnz54tDg4OFomoODY2Jvu2PuWXeP6wrUyaJAYgwQMiZ2DmD9Z7iWcr7Ssv/Dx48GB82bJl8d7e3vipU6filY9SKl4oFOKyZ+Z4sViUfY989zxP3pr8vqjN5vVBKnVofWhkq/O9IDLyX0WuvLjwxlaU5yILQMIBpNw28nLYN8qv+I4bY3rEkCvf6+1FpjT4UJELfEUZTDWpIgmAhAqIyzUs9DQABICEOooVuoW3eUIAAkAASAOIAAgAASAAxM7Pog+CPkitpcCDwIPAg8CDwIM00AAAASAABIDY2QBCrAZ6Qh8EfRAAAkBqNYAQCyGWnXuFB4EHgQeBB4EHsbte+lIY5sUwL0IshFh2lwyEWAixEGIhxEKIZXe9RIhVqyd4EHgQeBB4EHgQeJAWNIBOOjrp6KTbAYMQCyEWQiyEWAix7K6X6KSjk+5rACEWQiy7SwZCLIRYCLEQYiHEsrteIsRCiIUQqxkrmIuFYV70QdAHaXadOPc/+iDog6APEu0+yH+Vi/d+O6Q7IgUPAg9iZ0iL4EH+lZmfla1QKDz75JNPylq1tGXLljU9PT3XGmP8jYh+xa4GTlIABIDYGU6YgDDzn2Wz2T+xKVk6nf5TY8wf28g6yAAQAGJnNiEBckxrvWVycvI/7Ep1TmpoaOjDSqknS12lVa2ks5AFIADEwkzC6aT/KJfLrbcrzcJSqVRqhoiubCePmrQABIDYmVPQHiQejw9OTEwcsSvNwlLDw8Ori8Xi4XbyACD22sN9kCpdBQmI1vpjk5OTf2ffNPUlh4aGflcp9UQn8sJcrMZaBCAhAGKMeTyfz2/rkEH72SSTyceY+bYO5IkQCyGWnRkF5UGY+ZPZbPZRu1LYSaXT6duNMV+yk24oBUAAiJ0ZBQUIEX04l8t9x64UdlKpVOpDRNTSSFidnAEIALEzuqAAicfjqyYmJjr6fvfh4eGVxWLxmF3N4EFc9YQ+SPB9kNdyudw61wZqlC6VSh0kove2mTc8CDyInQkF5EF+kMvlZLpIxz+pVOpZIvrFNjMGIADEzoSCAISZ385ms8vtStCaVDqdPmmMGWgt1TukAQgAsTOhIACRMyulrty7d++LdqWwk9q6desHtNY/spNGH8RVT+iDBN8HIWYezmaz/+jaSAulS6fTv2WMmehAnvAg8CB2ZhSUBzHG3JvP58fsSmEnlUwmx5j5s3bS8CCueoIHCcGDyCmYeSibzcps3LY/6XR6izFmsu2MzmUADwIPYmdKQXmQ8tlfzOVyHZmFm0qlpO/xAbtaNZUCIACkqZH4AgEDIl4kk81md9qVZmGpdDr9kDFmtJ08atICEABiZ05BAyKlMMZsy+fzj9uVaL5UMpm8jZkfc0nbIA0AASB2JhUGIGVIvm6MuXtyclIefmr6GRoaWs/Mny89u35zU+HWBQAIALGzmrAAqZRGRrdKnff9RPRMLpeb9xBUKpUaJKLrS53xqzs0WlVPCQAEgEQTkJpSTRPR98u/XUdEG+xK3bYUAAEgdkYUtgexK1XgUgAEgNgZGQA5p6dEIvHt0v2RzXZaW9pSuFFY1b4ABIDU4g5AAAhCLIRYdmEAPAg8CDxIA1YACAABIACkVgMIsRBiIcRqoAEAAkAACACxswGEWAixEGK1wAqGeTHMixALIZbdJQOjWBjFQoiFEAshlt310pdCiIUQCyEWQiy7SwZCLIRYCLEQYiHEsrteIsSq1RM8CDwIPAg8CDwIPEgLGkAnHZ10dNLtgEGIhRALIRZCLIRYdtfLuU76w0S0vYU0S1YUHgQepMa4x+VG4a8T0X1EtHHJWr5lxQAIAKkylZeYeSdXfti1a9ctWutfJqI1sjHzGmPMpeXvliZ2fosBkK4E5CQR/ZiZDxljfizHxpgXpqen/dd2zwFSz7TvuOOOZQMDA5caY9ZorS+NxWICjg/RAtuK8xkRALKkAHmH4RPRIWb2IfA8T/aHZmZmZF/30xSQVgz+rrvuuqS3t/dSz/MuVUr53ke8kHijBWBSreTdYdlTzHywtJD0a0Q0t9+zZ88/VJ8nnU6PG2M+3eFzRyo7Zv5CNpud1wdNJBIpInofEf18eV857qi9OCqiruFrrV8XT9DT03No//79Rxzzn5dsUSo8PDwcW7t27RxIZYgEJPFUAlYltBOwLnSs6FsV41dKHdRaCwivxuNxf3vggQfk/4afZDK5mZllEbUl+zHG3JTP559qVsFNmza9p1gsXq6UutwYUwtPJyKHWsP3jV1rLVd92fvfp6enjzYrayf/XxRAWqnAnXfeubyvr8+HKR6P+2FeBaTyXt4ge4iIXq1sWutXH3744f9p5Tz1ZGVldaWUxKPXdyK/COXxjNb6dtsV5huV+8orr3x/LBYTcC5nZn+TYyJaS0RvGWN8I5d2Kh/PM/6+vr7X9+3bdzxCupkrSuQBiaLSUKbu0QAA6Z62Rk0dNABAHJSGJN2jAQDSPW2NmjpoAIA4KA1JukcDAKR72ho1ddAAAHFQGpJ0jwYASPe0NWrqoAEA4qA0JOkeDQCQ7mlr1NRBAwDEQWlI0j0aACDd09aoqYMGAIiD0pCkezQAQLqnrVFTBw0AEAelIUn3aACAdE9bo6YOGgAgDkpDku7RAADpnrZGTR00AEAclIYk3aMBANI9bY2aOmgAgDgoDUm6RwMApHvaGjV10MD/A3lsQzS5ksrrAAAAAElFTkSuQmCC;" parent="1" vertex="1">
          <mxGeometry x="120" y="120" width="60" height="60" as="geometry" />
        </mxCell>
        <mxCell id="e5PW4hlqIi2uyE3xQMOH-2" value="" style="shape=image;verticalLabelPosition=bottom;labelBackgroundColor=default;verticalAlign=top;aspect=fixed;imageAspect=0;image=data:image/png,iVBORw0KGgoAAAANSUhEUgAAAMgAAADICAYAAACtWK6eAAAAAXNSR0IArs4c6QAAHMdJREFUeF7tnXmcFMXZx39Vs7uwy/QspyIgyqEgnnhhjBDEA/GAVyPeijGyr0wPvMagMfqqBEnURF8FZmYF7xhjjIlGjTfe4hmRCFHj8XoioIDs9iwCO1PPm17lzYqw02d1zUzNP3w+dNVz/J76bndXd1cx6J90BaoSqbFE6Ecktgez/2X9GEM/ANsDSABUIIZmEFvOwd9lTPw9z/hCNM19THqwFe6QVXj+8tKvmzqcczoLTEwCmOHVMQEfxBi7Jd+cvtyrDd3PuQIaEOdaeWjZUBczqk4VYCcxYIwHAx11EURYEuPszxqWgJVtZ04DEpK2PGFOA+E8ADuE5KK92VYG3FewMhMl+KooFxqQoMsdT+7CGJvJgOODNl3MHhE+pqrYmVg756libfVxZwpoQJzp5KgVj5sNYPgFgN6OOoTRiJBnDDcVrMw5YZivNJsakCAq3vXcHXmhdSaA04MwF4QNAv5BLH8smue9G4S9SrWhAfFb+dqp/XiVeAjA7n5NhdD/K8GrJqBp9uMh2K4IkxoQP2XednqX2Lr1DxLoB37MhNqXsE4UMAZfZV4O1U+ZGteA+CgsM8x7GHCsDxOyujYLsBGw0m/LclgufjQgHivJDfMGAGd77C69GxFWU13Vrvh89krpzkvYoQbEQ/G4kbwKYBd46BppFwJWkNVrADBjfaSBlJBzDYjLYsWM5GQCm++ymzLNCXifrMxgZQJSPBANiJsCdZm6J+eFBQDr6aabam0Z2G8LVnqSanGpGI8GxEVVmGE+yIAjXXRRtakQTIxHc+ODqgaoSlwaEIeV4PHkZWBshsPmyjcjsE/JStuv1+tfBwpoQBwMj1hiyjgibj8MLKsfA7u3YKWPK6ukAk5GA1JMUMPswRkWgLBXsaYleJwEi01C85zbSzB2KSFrQIrIzA1zHoAGKdWIwAkBX5CV2SYC1yXhUgPSQZliRvLHBHZjSVTSR5CM8Hghlznch4my7aoB2Vppu6R255yeANCrbKvfLjFBbBpy6bmVkKubHDUgW1GLGeYDDDjajZgl3rZJWL3+9XxnRr7E8wg0fA3IFuTk8eQlYMz+vqOifgS8QFbm+xWVdJFkNSCbCWQvySOIHqnUQcIZu1QvAvHv6mtA2pNQP6UbL/AFYNi7UgEB0CI6te6EVfOXV7AG/5+6BqTdKOCJZCOIVfy33ES0mHLZ4RoQQAPyzSiIGakfEehmPSi+VoCDrslb2emVrocGxB4BcXNXzmAvlVMRU7oOB/0GQbF9kZuz1GH7smymAYG9EKh5HwPGl2WFfSRFoH+SlR3qw0TJd614QHg8dTEYzSr5SoaUAANuLFiZySGZV95sRQNSVW8eJgT0iukdDVNCXlSJQ7G28RnlR3MIAVYuIN0a6nlr9ZMVPqXraEgR6EOysv/6lr3yfhULCE+kMiBKVl7JvWXMiO4q5LIneetdur0qEpCYYU4i4NbSLVsUkRMJih2P3Nx7ovAelc/KAySe3IUzZl9P6yldl6Pu62WDMtu57FbSzSsOED2l62+8MrAHC1a6Yt5yrihAuGH+HMCv/A0R3VtATIbVWPYfktmVrhhAqrqYhwiOBXp4+1eAGFtDzeke/i2pb6EyAOl5gcHXtzytp3SDG5CM8HQhlzk4OItqWqoIQHgimQExPaUb8Bjkgk/Pt8y9JmCzSpkre0BiieQZROw2pVQvn2AsYbX2BuavK5+Uvp1JeQNipIZy0LN6Sje84Utgr5CVHhGeh2gtlzUgekpXzuDiTMzKNzdeIsebXC9lCwg3UhcCdIVcOSvW23oR6zwUa6/5qNwUKEtAquKpMYK1rWmlf5IUILClZKVV3MjUlwLlB0ivZJx/xZ7RU7q+xoWnzowwt5DLTPPUWdFOZQeIClO6vbepQ59t6tCje2f06NYZPbp2QreundE1UYOdBtS3/X9VjKO6iqGqKoaqaobqKt72f9v2qgUIEIJARBCEtn+JgJZ1rVi2ogVNzRux5ssN+Hz1eixbkcPHy3JY+vYaLH1nTdTDrFUUxPewrvG1qAMJyn9ZARJLpE4jIikrlffvE8dOA+vbBvzgHesxbKdu2L5vHPb/d+oUC6o+ruzYxdzQWkAul8fHn1l498MmLP7Hajz38nK88vrnrmx5bVxuW7yVDyCGuTMHng96SnfbnrXYbWh37DakO3bduTsOGtEbA/snvI6fSPu15gU++tTCW++txcuvrcQjT30SylmHQdxWsBrPjDTZgJyXDSBBT+mOG9Mfcy8/CP226xKQ1GqayRcIV2Vex+XXBXpVJATn49A0t+Q/Zy4LQMKY0rUBuffGsWqO6oCj+uWcRUEDgnLZ4q3kAamKp0YLRvaaVoH+NCD+5WSgewpW9of+LUVnobQB6dNQx5urn3M3pWunTEUV14AUlchJAxJEJyOXvctJYxXblDQgYU7pakCKDVf7j4w9fDr+g1PqW7yVLCDOpnSdnS22NBQ0IMUAcX6ckXi0kGs8wnkPdVqWJiCJ5GBO7IWgp3Tbl0UDEuwgFcSmIJe+Plir4VsrSUCCntLVZ5DgZ7G+qylbK6x0t/CHdLAeSg6QMKZ0NSAyAGmbGnmerMzIYIdwuNZKC5B4ajQPYUpXAyIHEFtnzsVF+abGkvkMoYQAObMzj3dZ6G5K1/tfF30P4l27Ij1bhFXTH7g28jcrnWRYMoCEOaWrzyDyziC21kRsEeXS+zgZoFG3KQlAnE3pBiulPoMEq+e3rBGBM3ZV3spcGKKXQEyrD0j91EG8UHgDjNUFkrFDIxoQh0J5bUaCBMsPhXXDO15NyOinPCAsnnybMTZEhhjtfWhAJChObI3Iqb1Co9KAxAzzLwRMkFCq77jQgEhSnegNkcvuKcmbazfqAhI3GzjDPNcZBdRh1Ig+eOzOowKypraZ6TNfQvrWJZEFyThuKTRlzoosgA4cKwsIN0wbjoaoRNt5YFe8sWBiVO6l+v1hw6N4cMHHUn22d0bAZ2Rl+kYWQMkBUj9lHy7436IUzP6uvOktJf+oBS7LgAPvwPIV0a4eGhN0XmtL9trAk/NpUMkzSNRnj02avvn0SRjY3/Apsdrd7dVT6gZHv9UHAR+QlRmomlrqAaLA2WNTke5qPBQTxpb35q6r1qxHv32lLARTdOwLsLNgpW8p2lBiA+UA4Yb5awDnS9Rgq66mn7MnZl2wvwqhhBbDwleX45AT/xqafTeGCfQqWVmlBFcOEGaYDzLgSDfChtX2gL23xdN/Gh+WeSXs/vevX8HV1/9diViIsJpymZ5KBPNNEMoBwg1zGYA+qoj00cunfb3aYVn+GDoPnK9SZkJYmWhW3duKCmoB0vWcHXkh9oFKFUvPOghnn7KLSiEFFsuHn1gY+oM/BGYvCEMiFhuDtXMCX6XGa2xKARIzzKMJeMBrMmH0G/W9PnjsjvJ8YPjL2Ytw+exAF4zzXQIOKPUSo1KA8HhyBhi7zLfKARt44f5jsfduSl0a+85ww0aB+qE3+bYTtAEi8QzlGkcHbderPaUAicXNk4jhTq/JhNXvzBOG4PorR4VlPhK7dz/4Pk6f+mQkvjtyqtoWCkoBgrqpw3lMLFKuagAWPXI8hu1ccmsObFHKja0FJIbcrKLMEIKfgpa5yvyRVAsQNNRxo7pFxcpNPGYQbp89RsXQXMc073dv4r8uXei6n4wOwmrtBcxfJcOXEx+KAQIww3yKAcpcg7YX8a7soZhwRGk/WV/+eQsGHPB7J2NDfhuGtaI5o9RpWjlAeDyZAmNz5VenuMcd+hp49eHjkIjXFG+sYAt7l6qDj78fL72+UsHo7EVM6U8FK6vUK9TKAYL41GGciX8oWUEAJxwzGL+dfbCq4XUY15ybl+CCWS8pG7uIidFY2/iMSgGqBwiAmJF6kUAHqCRU+1guOXcfXDxtb1XD22JcTy1chnGnP6RszASsICuznWoBqglIYspRRFyNN+i2UrH0rJE4+5ShqtVzi/EseWsN9jvqzwrHShCMTkdz4+9UC1JJQGyReCI1E0SXqCZY+3jmXTUKkyZKX0/ClSRvvfslho/9k6s+shszsIcLVlqJF1Q3z11ZQOxAWdx8jDEcJrtgbvz9z4wDkTxjVzddpLVdtHQVDhx/rzR/XhwRwxpqzvTw0ldGH6UBQSK5Hye2AIDS28qq+N3IAws+xsSGR2WMIV8+BLFpyKWVnLVs+yPtKzsJnWOGeSyh7fWTThLceXZx5Jj+mKPArritrQK/uPZvynzjsVVBCeAMv8pbmYs9iy6ho/KA2BpUxZMHC8bsu0ylHiJtXp9u9Z1w5UUjIrsvWfL2Ghx24gNYa22UMHR8uRAcuChvZa7yZUVC55IApE2HLsnenDN7pRMll4dpX6tDR/bDz8y9MHJ/ObOWn69a13bWuOnOf0oYMj5dEPICmIZcptGnJSndSweQb+RQ7YvDjqp09KE7oOHUYTj8B/1CKeaHn1qYfcMSNN6u7HPVzfMuCEaT0Jy9IxRBQjBaQoA0VHOj2t7jruQWqxoyqB7HHTkI9n3Kfnv28lFGwher1uOJhcswa84ivPdBkw9b0XQl4D3i7HA0pZX6cnRrapQGIF3P7coKrbcz4Oh/J2KHXny/82iGwda99upRixHDt8Feu/bEkIFd0X/7OHr3qkW90QmdO3F06lQFe62qfF6gpaUVK75Yh7fea8KTCz/FTXe+rVo6XuNZL5iYrOKDwc0TUh+Q2nP68qqY/X7OIK/V0P3UVICDXZu30uepGd3XUakNSPyc3TiLRbeqssqVK4nYip/lVX6KrjQgMdfvY9mXW2rzXhJjOoIgVfsOvb0ESo6oKLZci2BcaJftFFAVEuUA4QlzGgiz9eipPAVUhEQpQHg8eRkYmxHM0NCXXMHoKNeKapAoA0jMSI0n0H3BlqP4TWKw/rS1IBQQFEshNycThC2/NtQApDa5Pa9i9oOjwNdl1ecRv0Nka/3DVVYwGofm7CNhRe/UrhKAxAxzIQEHOg1at6sIBXKCsz2ifuIeOSDcMK8BIOlhkb7kKiW0CLSMrGw4L7I5FCJSQGJx8wRiuMthrLpZBSrAQH8pWNljo0o9OkC6TevP84UnAAyOKnnttxQUIBKEk5HLRvKHNDJAeNz8HRhOjbZE4d5oRptbUN6j14jAlpOVjmRTpUgA4YlkCqTm6olBDSttJ1gForrUkg/I11O6rwDoHayE2lqZK1AQonpftFy3WGae0gHhRuoKgC6UmaRzX9FfTjiPtfJaRvGUXS4gRmooh3jFXsNd3fLqqWB1awPpZxGpgPC4OQcMUxUuQFto+jyiboVkn0XkAVJv7s0F7HuPwF8nUbecOrIQFCgIsN1gpaV8fywNELlPzIMsSzlfcpVmbozYXYVc+qQgq7w1W3IAMcweHGwJQHIWipKhnPYRmQLEsJYk7UQlBRD93COysVS2joXAT9CSuS7sBKUAUl5v6+pb+LAHpRP7BFpKVnZ3J239tAkdkKpE8ghB7GE/Qeq+QSlQmvccW8leCM4Gh/06fOiAlO7NeVCDUtsJSwFONDufy54bln3brgxA/g5gjzCTiNa2vuSKSn8Ce4esdKhbfIULSGLqAZzEi1EJKM9vWV26yJPNrydieZHbWA/MX+fXVCTTvDyevASMzQwreJXs6vNINNXgjH6Rb84GtBLOd3MI9QwSM8xnCBgVjXTf9Rrbtjuqhw1A9YA+iPXuAV4fB+tUrUp4bXG8MEqdBbk3CODTdcAnTa34aEUOz778CV58YDEKK9cooxkRLaZcdnhYAYUHSDy5C2fszbACd2O380F7ovOo4ajeaXs33SJp+/yeViR+nTpdm2dYuGwDHn30n3j0evuD0Kh/bIOw0p3DiiI0QHgiNRVEc8IK3IndmuE7o8uxB6Nq+22cNFeijeqAtBfp+ZUF3PXHxXjsluci1S7MjUBDA4QZ5n0MGB+VcvFTxqL2sP2jcu/ZbykBsinJPyxag8vO/q3nnP12JGAhWZmD/NrZUv9wAKlr2I7Hqt8HUBtG0B3ZZDXVSJjHo2aP0lwLohQBabt3WrYBZ/3wRtDGVtklt/21CCsTD8NxKIDEEubpRJD+J4VVVyHx01NQM2SHMLSSYrNUAbHFeWlFK86cMA/UmpeiVXsngrFT0Zz+fdCOQwGEG6nbADoj6GCL2aufdgJqhof63KhYCL6PlzIgdvLzX7dwzY9v8q2DWwOMxKOFXOMRbvsVax8CID+p5caG9wEm9dX2LseORt34kcXyVf54qQNiC3z9sytw7bl/kKo1MfqSmrPdg3YaOCAxI3kMgd0fdKAd2ase1A9d//tHMl2G5qscALHFOfHip7D4YfstI3k/wflYNM19LEiPgQPC4+ZsMEwLMshiturPOxk1u5fmTfnmuZULIPe+vx4XTrR37Zb3Y4Q/FnKZE4P0GDwghmk/HNwlyCA7slUzpD/qL5wky13ofsoFkLazyIznsPj+10LXbJMDAlaQlQn00j5YQIypIznEs9IUAWD86Bh0HrWXTJeh+ionQO5YYmHmJLk37KLA98a6ua8HVaRAAeGJ5EwQuySo4JzY6ZE+H7xLaG8aOAkh0DblBMgXG4GRI9NSp30ZcGPBykwOqiiBAhIzzBcI+F5QwRWzU04355tyLSdA7JzOnfMqHr51YbFSBnacQB+SlR0QlMHgAOmS2p1zeiOowJzYqT1kP8RPC3zq24nr0NqUGyC3Pr8cV0yTunOBEDU1/bH62mVBFCkwQLhh2rtE2btFSfvZcNiQlNOv3AC5Z2kzfn7GzVJLxMGuzlvp84NwGhggzEg+xMDGBRGUUxv19jtX+0qbMHMalq925QbIEx+uR/I4udO9BPYmWeldfRXim87BANKtoT/PV78HQOrXR13PPxXVwwYGoYMyNsoNkFdXtOK0IyXv6EzIi1yvf70oO8P3S2GBABIzzLMIkDufB6Dr9NNQvWtg92NKQFJugCxa2YqTx0kGBADn/OJ809xf+S1qIIDweOr3YHSy32Dc9teAuFVMfvuoACGwv5GV9n2D6h+Q7lMTvLVgv5zYU7b8GhDZirv3FxUgANYLK+P7eyTfgMTiyeOIsT+7l85/Dw2Ifw3DthAhIBDEpiCX9jVD4BsQnjCzIEwJW+gt2deARKG6O59RAkJgz5CVHu0u4m+39g+IYb4b1V7nGhA/pZfTN0pAAFjCyiT8ZOoLkKp4aoxgFNnaLxoQP6WX0zdiQOzLrBOQS9/tNVtfgHAjeQXAItuxVgPitezy+kUNCAP7a8FKH+M1Y1+AxAzzVQL29ercbz8NiF8Fw+8fNSBEWE25jOcZVu+AfL0pp7yvYbZQSw1I+APcr4eoAbHjFzExGmsbn/GSi2dAuGH+DMCVXpwG1UcDEpSS4dlRARBG7M5CLn2Klyw9A8ISyccZsUO9OA2qjwYkKCXDs6MCIAR8Rlamr5csvQFSP2UgF9xeOTHSnwYkUvkdOVcBEAAkKL8bcvNcL6buCRAeT/4nGPP1hNKRukUaaUCCUDFcG4oAAsbE9YXmRtcPtD0BwgzzbgYcH660xa2rCki3KoajtumMUd1q0K8TR6uLLT9iTV8VT7xdC84FOMujpnoDaqrXu+oro7EqgBDY+2SlXa8N5R4Qw+zBAfvbj64yBO7Ih4qAnNanFtP613mW5tNl3j9hqOucQ7xurWffYXRUBRCACWFs3BafzV/lJk/XgMTiyROJMbnrSm4lI9UAOapXJ1w2yN8i434AsWUy6r5EbecWN2Mg1LbqAAJw4Iq8lbnITcKuAeGGeQOAs904CautaoC8ckAP36n6BaS6qhXdEit9xxGUAZUAIdBSsrK7u8nNJSATY9zYxp69UmJ/AZUA2b++GuldfL0X11Y3v4DYNmxAbFBU+KkECIBWYWVq3OjiCpCqRGqsIHrEjYMw26oEyOR+dZjcz/f3OYEAotJllmKAgAt2fr4lfbXTcekKEG4kfwOw6U6Nh91OJUDO7leLhn7eb843aRXEGUQDsvWRR6CXycoe4HRsugTEXAxgT6fGw26nEiD7JqqRHaYvsTavuWpnEABfCSvj+C+Zc0AS5ghOeCnsQe/GvkqA2HHrm/TvVk9BQCCAH8PKOFrNzjEgPJ5MgjH567d0QIxqgBzRswYzBxtuGP9OW7+XWCpdXtnJqQgIA91dsLInOCmUc0AMcx6ABidGZbVRDRA775N6d8Z5O3bxLIEfQPSDQmeyE/AeWZmdnLR2DkjcfA0MezsxKquNioDYucftV016dsJID6+a1FruXhfRr5p4Gm2OlwRyBkjiJ905bVztKZQQO6kKiJ+U9cqKftRz3ldg4xBYN7xTrIcjQKJenGFrSWhAipU3+uMq3oPYqnBWuDTffP3lxRRyBAg3UhcCdEUxY7KPa0BkK+7en6qAMGJPFnLpQ4pl5AgQZpj3MWB8MWOyj2tAZCvu3p+qgBDYSrLSvYtl5AyQuPkIYxhbzJjs4xoQ2Yq796cuILSKrGyvYhk5A8RI3ctA/1HMmOzjGhDZirv3py4gbDlZ6T7FMnIESFTbGxQLXgNSTKHoj6sLCD4iK7NjMYWcAWKY9uY4ZxUzJvu4BkS24u79KQzIO2RlhhTLyBkgCTMNglnMmOzjGhDZirv3pzAgS8jK7FEsI2eAKPaa+6akNCDFyhv9cXUBoVfJyu5fTCFngCSSM0HskmLGZB/XgMhW3L0/dQERz5HVOKpYRo4AQTw1mjN6qpgx2cc1ILIVd+9PVUAg2PnCwZeFzgCxH80b5ucAis4bu5fQew8NiHftZPVUExAiYWW5Ew2cA5JIZkAs6cSorDYaEFlKe/ejIiAEOJrBsrN2DEjMMI8m4AHvUgXfUwMSvKZBW1QREA78Jm9lLnCSq2NAgBmdufHFxypdZmlAnJQ42jbqAWJfXnXqCVy7xokyLgCx70NStwF0hhPDMtpoQGSo7M+HaoAQ8L9kZQY5zcoVILFEahwRPeTUeNjtNCBhK+zfvmqAcMYuzTeni34HsilzV4DYnXjcvAMMnnbr8S/3ty1oQIJWNHh7KgFCoA/Jyg5wk6VrQJCYegAn8aIbJ2G11YCEpWxwdlUCRCA2GdacG91k5x4Q+yyiyLtZGhA3pY6mrSqAEODo3avNVfIECIzUUA6yF5Grj0b2r71qQKJU35lvRQAhwXA0mjOu75+9AdJ2FknOArGLnckUTisNSDi6BmlVBUAIWEhW5iAveXkGBJjBmfHFPQyY4MVxEH00IEGoGK6NqAEh2F8O9uwPzPC0dZcPQABsO70La1l/D2N0eLgyb9m6BiQK1d35jBIQIqymLrXDsPJq+z1CTz9/gNgujYaeMVTfS4CnU5inqL/ppAHxo56cvhEC0iywcT8ni8N1pIR/QGzrtcnteYzdC4Z95Miub9Jl6uzHVySAENaJAj8YX819xU/sdt9gALEtJabtxKlwt8z9Q/QZxG/5w+8fASBfCY4JaMo8HkR2wQFiRxOf2oszcaWsBR40IEEMgXBtyASk7TV2sAmw0m8HlVWwgHwTFY+nkmBkg+Jvs4wiWWpAghoG4dmRBAgxYn8s5NInBZ1JKIC0BZkwRzDClQwYHXTQm+xpQMJSNji7YQNCDGuJ8FOnO0a5zSw8QNoimVHFjS+uBNg5AHnfVWYrWWlA3JZbfvsQASECe42sniOBGe42VXEhQ8iAfBNJV3MHXsAJDJhIwH4u4uuwqQYkKCXDsxMCIBYDFhQYvxLN/mepimUuB5D2URip7/O2j67YqX7PKhqQYuWN/nhAgFDby4Zg18FK3yIzK/mAtMuuqn7q4SSoLxH6gKMPEfXlQB8C+gIourCwBkTmUPHmywUgBYCtJ5AFsFWcsAKMPmY89l6+aU5ke9P8HzsR1FDOckB2AAAAAElFTkSuQmCC;" parent="1" vertex="1">
          <mxGeometry x="120" y="270" width="60" height="60" as="geometry" />
        </mxCell>
        <mxCell id="e5PW4hlqIi2uyE3xQMOH-5" value="" style="shape=flexArrow;endArrow=classic;html=1;rounded=0;fillColor=#f8cecc;strokeColor=none;fontFamily=Helvetica;fontSize=14;gradientDirection=east;gradientColor=#B85450;shadow=1;" parent="1" edge="1">
          <mxGeometry width="50" height="50" relative="1" as="geometry">
            <mxPoint x="150" y="210" as="sourcePoint" />
            <mxPoint x="150" y="260" as="targetPoint" />
          </mxGeometry>
        </mxCell>
        <mxCell id="e5PW4hlqIi2uyE3xQMOH-14" value="" style="shape=flexArrow;endArrow=classic;html=1;rounded=0;fillColor=#DAE8FC;strokeColor=none;fontFamily=Helvetica;fontSize=14;gradientDirection=east;gradientColor=#6C8EBF;" parent="1" edge="1">
          <mxGeometry width="50" height="50" relative="1" as="geometry">
            <mxPoint x="240" y="300" as="sourcePoint" />
            <mxPoint x="300" y="300" as="targetPoint" />
          </mxGeometry>
        </mxCell>
        <mxCell id="e5PW4hlqIi2uyE3xQMOH-15" value="Server" style="text;html=1;align=center;verticalAlign=middle;whiteSpace=wrap;rounded=0;fontSize=16;fontFamily=Times New Roman;fontStyle=1" parent="1" vertex="1">
          <mxGeometry x="120" y="180" width="60" height="30" as="geometry" />
        </mxCell>
        <mxCell id="e5PW4hlqIi2uyE3xQMOH-19" value="" style="shape=flexArrow;endArrow=classic;html=1;rounded=0;fillColor=#DAE8FC;strokeColor=none;fontFamily=Helvetica;fontSize=14;gradientDirection=east;gradientColor=#6C8EBF;entryX=1;entryY=1;entryDx=0;entryDy=0;startArrow=block;" parent="1" edge="1">
          <mxGeometry width="50" height="50" relative="1" as="geometry">
            <mxPoint x="480" y="149" as="sourcePoint" />
            <mxPoint x="410" y="149.40999999999997" as="targetPoint" />
          </mxGeometry>
        </mxCell>
        <mxCell id="e5PW4hlqIi2uyE3xQMOH-20" value="User" style="text;html=1;align=center;verticalAlign=middle;whiteSpace=wrap;rounded=0;fontSize=16;fontFamily=Times New Roman;fontStyle=1" parent="1" vertex="1">
          <mxGeometry x="260" y="180" width="60" height="30" as="geometry" />
        </mxCell>
        <mxCell id="e5PW4hlqIi2uyE3xQMOH-22" value="&lt;span style=&quot;white-space: pre;&quot; data-slate-fragment=&quot;JTVCJTdCJTIydHlwZSUyMiUzQSUyMnBhcmFncmFwaCUyMiUyQyUyMmNoaWxkcmVuJTIyJTNBJTVCJTdCJTIyaWQlMjIlM0ElMjJleHJvbm1ySjV6JTIyJTJDJTIycGFyYUlkeCUyMiUzQTAlMkMlMjJzcmMlMjIlM0ElMjJzdXJ2ZWlsbGFuY2UlMjIlMkMlMjJkc3QlMjIlM0ElMjIlRTclOUIlOTElRTYlOEUlQTclMjIlMkMlMjJtZXRhZGF0YSUyMiUzQSUyMiUyMiUyQyUyMm1ldGFEYXRhJTIyJTNBJTVCJTVEJTJDJTIydGV4dCUyMiUzQSUyMnN1cnZlaWxsYW5jZSUyMiU3RCU1RCU3RCU1RA==&quot;&gt;Eavesdropper&lt;/span&gt;" style="text;html=1;align=center;verticalAlign=middle;whiteSpace=wrap;rounded=0;fontSize=16;fontFamily=Times New Roman;fontStyle=1" parent="1" vertex="1">
          <mxGeometry x="100" y="330" width="100" height="30" as="geometry" />
        </mxCell>
        <mxCell id="e5PW4hlqIi2uyE3xQMOH-25" style="edgeStyle=orthogonalEdgeStyle;rounded=0;orthogonalLoop=1;jettySize=auto;html=1;exitX=0.5;exitY=1;exitDx=0;exitDy=0;" parent="1" source="e5PW4hlqIi2uyE3xQMOH-1" target="e5PW4hlqIi2uyE3xQMOH-1" edge="1">
          <mxGeometry relative="1" as="geometry" />
        </mxCell>
        <mxCell id="e5PW4hlqIi2uyE3xQMOH-27" value="" style="shape=image;verticalLabelPosition=bottom;labelBackgroundColor=default;verticalAlign=top;aspect=fixed;imageAspect=0;image=data:image/png,iVBORw0KGgoAAAANSUhEUgAAAMgAAADICAYAAACtWK6eAAAAAXNSR0IArs4c6QAAH49JREFUeF7tXWmAHFW1Pqd6MiyBgAjyZJdFAUFREFkzXR0ggiA7PFkUUAKZrh7S1QkICg7LC9t0VTJdPWwCiqC+oIAgSyDT1RMWQQH1CQICooAssigRhGSm67xUZ5J0971VXVPTnZ6ZOvWz69xz7/3O/bqq7j0LAl+MACPgiQAyNowAI+CNABOEVwcj4IMAE4SXByPABOE1wAiEQ4CfIOFw41YRQYAJEhFD8zTDIcAECYcbt4oIAkyQiBiapxkOASZIONy4VUQQYIJExNA8zXAIMEHC4catIoIAEyQihuZphkOACRION24VEQSYIBExNE8zHAJMkHC4cauIIMAEiYiheZrhEGCChMONW0UEASZIRAzN0wyHABMkHG7cKiIIMEEiYmieZjgEmCDhcONWEUGACRIRQ/M0wyHABAmHG7eKCAJMkIgYmqcZDgEmSDjcuFVEEGCCRMTQPM1wCDBBwuHGrSKCABMkIobmaYZDgAkSDjduFREEmCARMTRPMxwCTJBwuHGriCDABImIoXma4RBggoTDjVtFBAEmSEQMzdMMhwATJBxu3CoiCDBBImJonmY4BJgg4XDjVhFBgAkSEUPzNMMhwAQJhxu3iggCTJA1aOiZVy76HCqT/tmX6XhlDXbLXY0CASbIKMAL2rQzO7AlgvMLRPhSuQ05F1qZad1B27Nc6xBggjQZ+2O7F7RvOmWTuwHggMquCJ1v5NPTftzk7ln9KBFggowSwHrNO7P2KQrCjbVyCHhXTo9/rV57vt9aBJggTcZfM4u9QJQSCILw21xa3bPJ3bP6USLABBklgPWap4ziwwS0j4Qgz+XS6o712vP91iLABGki/sm5iz6Oa7e9DkCTJN28YenqJ5vYPatuAAJMkAaA6KWi0+g/SAFlofQ+4n+sdHxyE7tn1Q1AgAnSABC9VCSzhXMRca7X/Y2XwKTubnWoiUNg1aNEgAkySgD9mqcM+1YCOMZLhtpLG+e1A95p4hBY9SgRYIKMEkC/5ppR/AsAfcpTZpKyrZXqeKmJQ2DVo0SACTJKAL2ad11p7+LE4I9+6h2EL/Sl1d83aQistgEIMEEaAKJMRdKwv4kAP/RTT4rSkZ/VsbhJQ2C1DUCACdIAEGUqtGyhFxCFA8JKWVLgsPws9VdNGgKrbQACTJAGgCgliGE/BAD71nnFOqkvrd7SpCGw2gYgwARpAIi1KtLGfRsNwlp1d6cQsTOXjl/VhCGwygYhwARpEJCVapI9iw5EJXZ/ANXnWrp6WQA5FmkRAkyQJgCvGfZ3AODSuqqRLrXSifPqyrFAyxBggjQBes0sLgCiY+upRoR8Lq1q9eT4fusQYII0AXvNsN8AgE0DqL7Z0tWTA8ixSIsQYII0GPikUfgsAj4VSC3inVY6fnggWRZqCQJMkAbDnsoWvkGIPwqmlgYsPREPJstSrUCACdJg1JPZwnxE7BLV0hIAnFLz++8sXf1ig4fA6hqIABOkgWC6qpJZ+3FE2F1Ui68A0JZVvyO8aKXV7Rs8BFbXQASYIA0Ec+alD34sttbQux4qnwaAz1beI4C387q6SQOHwKoajAATpIGApkz7ACJ4wEPlrwFg78p7CLgsp8fXauAQWFWDEWCCNBDQZNY+BxEkJ+P4MpDzDCBOr+2OowobaIAmqGKCNBBUzbRvB4IjBJWIdyLBRwR0XO09jipsoAGaoIoJ0kBQU0ZxCQGtX6sSAS8Cos0I4dvCvSFn+9zZ015s4DBYVQMRYII0CMxUz6KdSYm5H+LCRYBHKeTsR4i68ATB2O759NQnGzQMVtNgBJggDQI0afafjKTcJKHHMijFdsQYnUxAF4qvX840Kz2t0KBhsJoGI8AEGQa003xgJ4XaDgfEvWGITGuOWhwJ1pph5wBAcDxEhIdyaXX/ZNaehQimSBA40kqrd4ykL5ZdcwgwQQBgZt+DH2tbWlpIRCvKE7gX4iFWOn5vUFNohv0nANhJIm9ZuppKZgunIeL1wisWwCl5XQ3omhJ0NCzXKASYIO7fvmH/HACOrgH1BWz7cJdc1yFL64E9y7Q3HCL4p4fcty1dvV7LLj4asOT2U30hdlnpuPv04WsMIhB5gnRd9sBWTnubu4vUJqzdgDtMyWxhGiIuktlXidEevWclnkjOKx6IDglRhgRwfl5XLxmDa4OH5L5IRB0FzSieCkA3yHAImpZHMwtnA+Hlog7885tbdOx863FYSs4rfBkdfFR8xaIr83ri7KjbYazOnwliFG8BoBPkBlJOtPSOn9QzXsooLiSggwQ5op9amURZ9/AmgPudUnUhwjW5tHpmvT74fmsQiDRBOvP2espS+AsAyB0Gkc6x0okr6plGMwolAFTE74vV7bXcQ5vB4ODfJbp+Zunq1+v1Ue9+yiwcRYQpRPhBG611r6nv4+U0WU8V369AINIE0XrsI0CB2z1XBFHOyiQksR2rW3SaAzsp5AhPBlfCAWd6nz6t/N2R6n10Cg19+J7kNeweS49/dTSrUjPt2UBwZYWOp7Etdlyua6p0XKPpK2ptI02QVNa2CCHpaXTE26x0vHZ3q0pcy9onAYKsGOf7Q6Vl2109Z/o/3Abd3aS8PaVYkrxilc9Jwi48zSicAIBC8jkEmJ3T1WxYvdxuBQKRJohm2H8GgB28FwP+xtLjX/ZbLMls8XpEOk1Y+ID35/R4lfeuZtgk0fVHS1c/F3ZBakbhFgCUfUNdbenqzLB6uV3ECZKcNzAVHWfAdyEgvmal45v7yWiG/VcA2FryZLg8l1bd/FirLg+C/M3S1W3CLkjNsJ8BAKHWIQHcl9fVg8Pq5XYRJ4hmFl0P2/PrLYShUvumV8/Zt/yaVHvNuOyBDdrb2/4lu0cAX8/r6s+qCVJcJqlX+C9LVz9Wbxyy+2nzwW0HaUjuCUzwrJVRZSf7YbqKbJsJ8YqV6l28Mw2V9gYH3mmLQXFeWpUu2urFWngMAOuWYUZq2y2X2f8PshWimf0JIKVfunoc2MmarT5b1adpvw0EH6+WR8fS47EwKzBl2scQwa0ebT+0dHXdMHq5zWoExj1BkqZ9IxKcUmHUoqWrqp+RNWNgVwDn/4IsBAXg4F5dvU9KkKzdDQjfF+4RPGVl1F1rf9cM291SFipOhY0q1MzCXCA812sezhB8su9s1U1ix1dIBMY1QbSewnRQUFi8ikN79M5OPOGFiWYU0stT8BgBMSv7UkkJ4lnigK6z9MQMkSCF3wPg52t/DxtVqGXt+wBBCONdqZ9KtFd+TuKxgPNkMQkC45sgHjs4RJTJZxKeBNBM+z4g74VVhRNCt5VWxTiOFU6Osl0pAKCkpSf6BIKYxQEgmlr7Owb0+aps191tt709BV7zPOQEAAWU43v1jgW88sMjMG4JMrOnsHtMwcc9pn63pauHyu6ljf7NB0F5VfgXB/g3AgjhsgB4naXHxadBj70jKODuIAmXQsq+vZmORySvWHcBgDAuChFVmDL69yRQ/J8OAT0Bwi+fid9y3BIkaRTmI8gyGJaN9pGlq+vIzOddOxCvA6DTJW3utXT1kNrfk6b9bSS4TpSnd5dNnrLltWfs8R/JK5b8zAJHHlWYmmefQQ5c7bdEieiqfCbROfGXcfNmOC4Jkuzp3xoVxT1/8L6Q9rPSiYeFRZq1fwYIxwsNUZkG5Mh2pKQHeZph/xQA/lsygF9ZunqYbGAps9hHRMLhnRuzntfj3i4vEmWaUbwGgIQnW7UojtiNRTOL7tnJ9krJecTvO655S3JsaR6fBDEKFyCg9LtgJbwE9P28nrioEu4Z3Xet2z5lPfe9fYMaMwxautquGYV3AHCjqnsE/1x3aNLWV5yz378rf9fM4j+ASHByRIDzcx7xHSnTvowIzhGXgHOapU+7cSRLQzPs3wLAHv5t6E+WnqjK5ugnnzKKNxHQ6nIMCLdaaVVIVTSScY532XFHkNlXLpz8UazdPecQApxqjDFg6WpV5nQtW/gaIP5SYrTbLV09SjPt3wHBbrX3ido+k8/s77qllK9U7z1TaGgdieMhgF/l2pRROI8A/0fUD+l8Rp0XdDGdNW/RpiUn5noG1zk/of9YemJyEL2aYbsVsapO/t129XYEg+gezzLjjiBJs6gjUSAnPEtXq+anGbZbMFOIvSCg4/N6YkHSsO9EAPH1qARqZRIHbV5hOjji9rK7ELANtsx1qcImQJlYhq0RgBheS86FVmZad9CFpPX0HwyKck8QeYeUrfoyHa/4yXZ22+spU/BFAPpErRwCpHK6agXpayLKjDuCaIbtxn5vGMgYCKqVXp2dxMtvaiWRUqZtEYneveg4J+RmT3O/OcqXlrWvBITZ4hjoSUtPSDK7r5DsMosnO0Sy1ECmpSeEnFlec0wZxfMISHgSyeQdcvbty0wTdtQqZZNG4XAE9Mqs0pB4lUD2GoNC44ogSXNgBpJzjfCKgvAEkqTkAOEVViZefudPGcX9CWix5B+yP6erB7i/e+XWrT1X0QzbTfT2BYk9yxlMvOzssxCvt3RVyLropccjyYRUPMhZiJYt9AKix7jxFUuPbzUG1+4aGdIaIchplz+0/rrKoOc/a+CZxspxF1sIi5zgTEJxy5MQnsin1fKHrGYW5wKR4JZRWas8ZRa/TkRiiC1Bj5VR56x6gngcEFKdFD5evlsE8PO8rtYt+lnxBPsLoOiyIsURYY6VVnv8MNYM2y0Z5/0xX1q2rTVn+kuB7TSBBJtOEC3b3w1K7HQ3N22TcHuVSnQMxsSECG5/K1+fNMP+HYD4AV5au22jqzr3L6fs6eyx91MUeFB4QhHcks+oJ5WfMj41CJFot1wmIXVsXPEUW7wnQUlyuIf3WzWxI56vVz4pTmVtkCCfy3hX0u3K9u/joCJsh1frohMtPVE3Nr9J9m2p2qYSZMW26uTXJaXHGjZpBLjkjSVvXbzplI2fB0DhVQDBmU7Q9rrMOXF5ooVH8npi35WD6cwObKmg87JkcKscIFPZQhchzhdf1fD1nB73/RNI9SzemZSSLH/vo5auVtUO8Xy98opgdPNyIcjc5j29CoafrOcDUdV2uNg39Vl6wjvysmHWHHuKmkqQVHbgC4ROMxMzv2/patk9JGXYdxCAUDEWEeZRiV4HRZKWB/ECKx2/uNIsmln8AIhq3cRf2HgJ7NTdrQ5pZvGXQPQ10ZR4m6X7h+d2zXtwK8cZ+ptkGTxj6erOQZaHZhQMAEwLsgi3AoH4mobwlJUWPYsrXhfd77J6Ib9/sHRV2P4OMt7xLtNUggzv1zfT3XrVR3H5VQ4VwfV8eeDScwrgawQkuMArQ8qne8/ueL7SiEnDfhYBPlNtWPxQWTa4Y+93DnxZMwofAKAYZ0Ewx8r4v+unjUc2GoSl70gWzd8tXRW+rWSLSzNsGwCEyriEdAYSutuxk2ravb9s8vobXXvGHoO1+rrmD+zglJxV5zt+ixnbYp/IdU19a7wv+JGOv6kEKT/CA7lEjHTYZfmqzB11tiolHeCTlh4XNg40074fCA6sbeC6jitrrfuMPDMJgEOY6MvE3cXreXUveLr97Vf/IUtluupJ6Nd++JDUPSCs9QSAEpa2i5Fiy14zS9i23VXp/d1YlKpLM2z3TMg9G6p7EcFh+Yz6q7qCE0yg6QQpk2TFv3tH47DDO7FNWViZ1iZ1ub0FTaIXAbA9YD+XWboq7Gols4XrEVFIwgAOHIlACin4C5n+0tK2ja46d8XHvt/l5SJfe6gp0+G1Ve3Kuu01w3YzNwpJJhAontMTQvy9lrVvB5RUxJL9nQBcktNVIUQ5bTyyzmBpqW9ii3qYrLyP5Lwy1ooJrRGCBAVotHKaaT8KJC4QmV4k2DuXUYVUoJppfx8IhFNtIqcTMbYLAMm8Y4N/ZHtsEQeJKlx+SHrW8kNSmUvK45aufsmrBBwinJRLq1WpgYYr8r4peSUDt7goAdX80WDB0uPTKrEcTrl6AQAEcmcJYl8EvCunxyXfeEFaN15mQhEkadpXI8EZAWDy/Cj2zNVLdDEiHkfC94lbKQGNXDqeCdCvG2TlusELrvhBogo1w/4hAHxT0k/5aejlLQwA51q6WlVctNO0j1G84tndSr1Y85pJtGwSrr2hqe/zodt/cl7/VHQU/6wwQQCRyYzQ9SZsN0HaTTCCFGYgoXDSXguEu7OVS6viTlD5QHEgIXN7R4IfyGoMuroR4dhcWhVLG0gssPy939202FQYU4CoQs2w3Th6IdadiA7IZxL9SU8vZ3GbVjPsHwDAt4QhEi1GhIUyp0qocN1JZu1FiFD1RAmy4ILJ0LuWnqhJbhGsZaOlJhhB+r+IpHjGoq8Cz6c4Tqq3fzsaUl6QAH03AEhThGKbs32uK1ghTs0oPgdAn67VXy+q0GeLeNVhaCrbfzqhcq2gG+CuvK5WvbZohv06APyXQFTAi5BKCz0OD8tPIs2wXa9f1/u3WdfTlq7u0izlI9E7oQjiTlwzCn+T7eSsBgVfsvT4tl4grYj1xqVlx/Wqi54EwC9K2o0o8ZtnHEedqELNtI8AkuYRftPS1fJCT2btQxHBDeutvaqCvlJGoYMApSXmFMJEr95R1MyiIz5d4A6HcK6i0G9GsshGKksIp+fTqvuEa/k14QiSNAp3IKBwYLgSaUK4Jl+n3ICH16/7j/tJicVG5O2qGYV+AEyI//L+UYVatnARIAq7SAS0IK8nyhGSSdPrCYpL3ist3ezHc6Z/UP4TyRYvByShJgkRPGTp8amISJphuy7yVWczCOB6RbxEQPt4rNwR1XWU6HiWFLg7P2vsbCdPQILY30OAqtPxSkOgQ0fnZidu8/tr0oziYgCqd7pcVkFEZ+Uzid6gf3XeW6v+UYWaYUsTPiA5M3KZaeXY+OGDSDfTohAOEFNox/mzEs+teMrKnRMJ4JL88FauZtiuY2jZ/yzo5XXeErT9WJSbcATpMuyvOABexTffwLYttsl17eBbd9AnIbRgw5iCe86fFXfDXwNdXjtRRP5RhZphu0FYYp7gGk9br2KiiHBgLq0uGs5CKa/nPvyxP0wi9wM+8GvOSD2SA4E1BoQmHEEyPfbGSxX6u/TAkOgmK5OQbZNWmcLLNV5ir8Flk9efLHPj8LKtZ+yFz9amn0+bGDVZ7Acg4RUOEU7NpdUfepeLg8fe3CK+r1suzh171/zC7k7JM62SML16nsxjYK2HGsKEI8jwv58bQSfxjg1YUi1rnyGLLxEQJlpsZRIj8hDQsvYlgPDdWl2+W8+G7fVv/pilq3tV6kqZ9s1EcKK4glc4ZmqGLXVOXH4wODevJ1aN69juBe2bTtmkboVft5+xdrgXigkejSYkQbrm2fs5DriVnSoP5Hyj/SrxqfOaVikqdVfxM5BPwc8bLT0uuri4nsoeocCAdKmVTpxX2V/S6O9BUCSHlnSdM4QXKG3uh7Z4kYMH5WfHH6jSlbUfX74rVj/QzSPFUiMXaqt0TUiCuGAm59mHKg7OcIB2BaRcPu2dirQWfL+yalWyRIdbmcSdIzGeZhQ6ATAvaVPOrCLTpRm2/Iko2RpOGXaGAGQRhO53metHJvmuwCeXTV5vr9pXRc2w3QQTmt/8JvLTY8XTkS8BgeH8WeUtUb8rTPb0VHbgG4TOj0S9oq9TmehzF30c1oq9ighr17aROThq2cVHA5bEU30CN6z2BQ/nROmTMJUtnk5IwsFj5TgcgIP7PLLf18NvPNxngnhYycslpEL8eUtXhRPxekZPmQNHETkyj+Cyw2Ft+5RpH0Cub5Rw4cuWHhcqW2mG7cbgC7tqRPQeYjmOpTZeBEChr1izEguFvrP2XoTwa685TfSnBz9BfFZzyiz+hoiEBbuqCdJNVrr+jpiw6IyBgwgcYTECgJRwPrtO0gPK4V28N6VlqWXzRXgKYx/ukes6RPggn3HN4+u2f7DkLWmAmHsGpMBhY+lQr96fU5j7/ATxQC1l2LcSwDGe/54KnJmbpdZ1jKxt35Ud2MdBR5YkYZXLSGUbnxzAfnVL5GcmkskQQDavq5IcXyuEk0bxYZScnEfh6cFPEJ+/lKRh9yCApwt7TIl9fv6sqYGqVFV2c9a8xZ8rOSVJ5hP80NLjQihvyrCflbnYk9O+TX72vrL4dvekPEDe3uFR+ThuuhKyHUEEeNtR4NSJ/vRggvgQRDOLKSDyciH5wNLV9cI8sv0Kb9Z+dCeziz6NGCu7h9RcQ5auit8Sw0Ipo3gnAUkzzFfrwT9PgvbdVsZ4eM1H67GPgJibtxe3RKAFiENm76wDZdlfwkAyptvwK5aHeXwSXbsBIA9Y6fhBYSw7+6qHP/HRh8vcSD7hqo0q1ObZx4MDVZVyy40QF1vpuOcBpWYU8x6Rj9V9EuWsTKIrzDyi0oYJ4mHpVLbweUL8vew2Al6U0+Ni8c4Aq+bkKxdO3iDW/r5MtDaq0KtcQu2pd62ulFGcQ0BX1BsOIh2aSyfcOBe+PBBggngAM8u0Nxxyk7FJrtHu/XslbqitVZgyiguXJ7cTnlQOlRJ9mQM8M6gkjcJxCPi/fqt+eZrUv65TWrZLz7ALPDNEjgATxGdlLC/X9hICbFMrgm3rbJDr2mtJ2EXlRZDKqMJU7z1rOUPrvIoAG9f2Uy8DineK09WaiOCafEYVSkGEndNEbccE8bFsyrRNIphVJYLwmJWudhAc6eLQjOJ7ADRFaFfhOpK8ctHeGIsJZQsQ8flcOu57QBkoYR/CkVZa9Sp5MNIpTVh5Jkgd0w7n9Br2jsUCtinzK/NxhVkZmmm/AiRmqa+sVejps4V4k5WO13XZTxr2EnnV3nKU12vrDrXvWFtWLsxcJnobJkgLLKwZhacBUJKLd3VUYSprXyfLooJI38qlEzfUG7ZmFP8EQDvJ5BDxhlw6LmY0qac0gveZIC0wumbYrn9TVRyHO4zKqMKkaT8uKwqkKG1b987av+4ZRNKw70WAr8imR6Acn9c7FrRg6uOuSyZIC0ymmfZ9QDBd6Ho4qlC7/P7NYFL7K2JmFQh8QOlVj3G598hby5YN7XDtdw6UFiFtARxjuksmSAvMo5n2AlmpgpVRhSmz8FUiFBNFj+CAUjOKnQAkizu52dLV1aWeWzD/8dQlE6QF1tKMwg0AeKrYNZajClOG/T2SZGYZyQFlV09hd0cRY8oVcvbtrVPUswWQjNkumSAtMI1P0czheu3FXwCREF2IEIvn9KmB8+EOZzBxvzXc+oNvAeLFVjoulqFuAQbjpUsmSAsspZmFuUAolF4AWBFV6HVAWe+AUDaVlQVUK+u8t2DK47ZLJkgLTOdd59xNb1o6BaBN5kY/ZvLVtgCylnXJBGkB9KlssYuQhEKggPAiOnQRIcpi1q+z9PiMFgw30l0yQVpg/pQ5cBqRc72k63cI4cdY695SFvRPTdqCaUSiSyZIC8zcZQwc54Aj8bbFQQBy/a+EWA+HlK36Mh1uQmm+1iACTJA1CPbKrrqyA4c46HjEYeAS0ZER37X0+JgoKNMCuFraJROkBfDPNAodMY/6HPLh0N2Wnji0BUONfJdMkBYsgZk9hd1jkkM8r6Eg0HdzemJuC4Ya+S6ZIC1YAjPnFT4Tc/DZoF2TonTkZ3W4Saf5WsMIMEHWMOBud2ca/Zu3geLmrgp0hTkgDKSYheoiwASpC1HjBWZc9sAG7e1t/wqmmZ609ET9DOvBlLHUCBFggowQsEaIH7tgQWzTVzcZCqgrcNmGgPpYbAQIMEFGAFYjRTXDHgSAtvo66URLT/ykvhxLNAMBJkgzUA2gUzMK7wDgRvVEcRC2zJ2jBv5eqaeP748MASbIyPBqmLSXx25NB69burpZwzplRSNGgAkyYsga00AzbNdjd1d/bXSbpSeObkyPrCUMAkyQMKg1oI1nWbUK3QgwO6er2QZ0xypCIsAECQncaJtppn0/EBzop4fDY0eL8ujbM0FGj2EoDZph3wYAR/o15gPCUNA2tBETpKFwBleWMoo3EZBfdpFfW7q6T3CNLNkMBJggzUA1gM6UWewjopleokhk5DIJzwpXAbpgkQYgwARpAIhhVKSM4hUENMezLdExViYhq4YbpjtuExIBJkhI4EbbLGUULyCgCz31DA5ubp1z0Guj7Yfbjw4BJsjo8AvdutOwMwpAj0wBAvw1p6ufCq2cGzYMASZIw6AcmaLOrH2GgnC1tBXRT61M4oSRaWTpZiDABGkGqgF0dvbYJyoK3CwVdZwua/Y0zoAYAMdmizBBmo2wh/6kUTgcAaUVnhSH9uidnXiiRUPjbisQYIK0aDkks4VpiLhI6J5omZVJrNWiYXG3NQgwQVq0JHzqCBYtXVVbNCzulgkydtbAcP3D6nrrw0V0xs4ooz0SfoK02P5atngsIpxMCA84RPf26eoLLR4Sd8/fILwGGIFgCPATJBhOLBVRBJggETU8TzsYAkyQYDixVEQRYIJE1PA87WAIMEGC4cRSEUWACRJRw/O0gyHABAmGE0tFFAEmSEQNz9MOhgATJBhOLBVRBJggETU8TzsYAkyQYDixVEQRYIJE1PA87WAIMEGC4cRSEUWACRJRw/O0gyHABAmGE0tFFAEmSEQNz9MOhgATJBhOLBVRBJggETU8TzsYAkyQYDixVEQRYIJE1PA87WAIMEGC4cRSEUWACRJRw/O0gyHABAmGE0tFFAEmSEQNz9MOhgATJBhOLBVRBJggETU8TzsYAkyQYDixVEQRYIJE1PA87WAIMEGC4cRSEUWACRJRw/O0gyHABAmGE0tFFAEmSEQNz9MOhgATJBhOLBVRBJggETU8TzsYAkyQYDixVEQRYIJE1PA87WAI/D8CB5dfCSe+3AAAAABJRU5ErkJggg==;" parent="1" vertex="1">
          <mxGeometry x="340" y="120" width="60" height="60" as="geometry" />
        </mxCell>
        <mxCell id="e5PW4hlqIi2uyE3xQMOH-28" value="&quot;Hi, I am Alice.&quot;" style="text;html=1;align=center;verticalAlign=middle;whiteSpace=wrap;rounded=0;fontSize=16;fontFamily=Times New Roman;" parent="1" vertex="1">
          <mxGeometry x="310" y="170" width="120" height="20" as="geometry" />
        </mxCell>
        <mxCell id="e5PW4hlqIi2uyE3xQMOH-29" value="Protect Application" style="text;html=1;align=center;verticalAlign=middle;whiteSpace=wrap;rounded=0;fontSize=16;fontFamily=Times New Roman;fontStyle=1" parent="1" vertex="1">
          <mxGeometry x="457.5" y="180" width="135" height="30" as="geometry" />
        </mxCell>
        <mxCell id="e5PW4hlqIi2uyE3xQMOH-30" value="" style="shape=image;verticalLabelPosition=bottom;labelBackgroundColor=default;verticalAlign=top;aspect=fixed;imageAspect=0;image=data:image/png,iVBORw0KGgoAAAANSUhEUgAAAMgAAADICAYAAACtWK6eAAAAAXNSR0IArs4c6QAAGD5JREFUeF7tnQkUdVVVx/+WJs5lVE6p5QCOCDgkolYKKQ5kWJCkWanlQOGUEpgDaIqiiZStVq0SBwzREANF0ZwIFXBEzTQHVCQlRFMiJer85D7X/Q7nvrfvvecO57691/rWB+8743+f/z3TPntfTS59EfhpSQ+VdFdJe1Z/9y3T84+DwDmSzpXE32+W9I242quN047F1rKvpNdK2nmxPdyejl0k6WBJb6932QnSbQBcQ9LRkg7tlt1zzRSB/5N0jKTDJF1OG50g3TR1XJiOn9gtq+cqAAH0e4gTpJum9pb0vm5ZPVchCDCT3FPSB30Gaaexa0n6tKRbtMvmqQtE4LOS7ugEaae5h0l6U7ssnrpgBB7iBGmnvSPD5u2Idlk8dcEIPMcJ0k57p0rar10WT10wAm9xgrTT3n9I4mLQZTsQuMAJ0k7RnG5YxHG1oDRtGpMul6DI+0q6g6QTJH1zYMxNoPr90sBayFO8SZelE+RJkl5R4cWx3D6SvpQHv2QpJlCdIANqIF/RJl2WTJAbSjpf0nVqmEGOe0n6aj4cdyjJBKoTZCD08xZr0mXJBLmfpDMSmH1B0r0HIokJVCdI3pE8UGkmXZZMEHA7u8G8fKiZxASqE2SgIZ23WJMuSycIJh9nSrppArshSGIC1QmSdyQPVJpJl6UTBOzGJIkJVCfIQEM6b7EmXS6BIGOSxASqEyTvSB6oNJMul0KQsUhiAtUJMtCQzlusSZdLIsgYJDGB6gTJO5IHKs2ky6URZGiSmEB1ggw0pPMWa9LlEgkyJElMoDpB8o7kgUoz6XKpBBmKJCZQnSADDem8xZp0uWSCbCLJxyXdTdL3WuBuAtUJ0gLR6ZKadDlnguCM7R6Sbly9weAdxuoPb8NzyOGSXtCiIBOoTpAWiE6X1KTLORHkBpL2r/78SmSEOBSMbwueKx7YonATqE6QFohOl9SkyzkQZHdJR030lPUzknZtoSMTqE6QFohOl9SkyykJcuvKOyGeQqYS3EwyW1nFBKoTxArnpOlMupyCIBgW/qmkx00Kz5WV+x5kBkqYqAmzJAh7jNdIuq4BlAsqS128b39F0pervz9vyLtKAhnxgvhziTznSbpTi7JIagJ15BkEV0S/Hp4c79KyL3NP/q/VM+rnDdRQky7HnEGeJWlTZ3HK9gZJH5D0xZ7ArCMH5OPlYds6TKCOSJD3V/3oCdWss79XEn4HcotJl2MQZCdJx1dfuVQnaegpkiDQJzKhADl4J5JyEcpzXMjR5e26CdSRCIJz5WMz4TX3Yp4g6ZWZG2nS5dAEuVG4y3irpLs0dI6gJexHuLTLJTeTxJc1RQ6Wajif7kKOuS2xPrIG11xYzqWcD1V3YjnbMzlBrlktlVLkuCzMFgdIOi1nj6uXhUPMHKtmmkAdaQYBQzDeBvnPAYIUmXQ55AxyYsOy6uuBOA8IF4J8AXPKUMuqehtNoI5EkFRbcutzqv7Opm+5AV0NJhw8c7oSy6cq31VsknPKkMsqJ8hmTeUeR4smSFOIAI5pMQ7Ev21OYeZgz3HLRKFdT6ua2jfVFzXVntkMogFmzNn0LTfzcebG0en1Io1eWm2yuHvIKWOSg3bPiSAfDpFZMdNZCUvWPXKCO2F/Z9O33AR5saSnJZRENNh3ZFYexTXdA3BahfO4tvccm5o4J4LcPwzgZ0vaTdLHwlf8uQ2O9Db1ad2/T9Xf2fQtJ0Fu3nB8+iJJz+yjpYa8TZ4V+x7lznHADACfqcipCGJqXM9Epr7lJAgmJMSZrsvXgmkJRokssXJLyjdvn0tAS/tMoA6wJre0bYg0S+6vqW+5CHLnapqPlfTIyvZqCOVRZuzdnaVc7mVVve0mUJ0gQ6k7a7kmXeYiyMnVQ6d6D86StFfWLqULY6PKYyvW4R4fJC/gpkFU6AfB1LccBCH8wHcSetlTEqcRSxITqIUOmJSeltxfU99yEOThlQVuHeCPRkeQSyGJCVQnSBHqNukyB0Gw1GWvURcsc3lGuzQxgeoEKULtJl32JQj5L5F0/QiS24YTLUKiLU1MoDpBilC7SZd9CcJDlndHcGBvRVDNJYoJVCdIEao36bIvQZ4ans++JILjb0L4s8cWAVH7RppAdYK0B3aCHCZd9iXIMZKeEnWurSOECbDpXKUJVCdIZ3zHzGjSZV+CEJv8oKhXj6ge24/Z2bHqMoHqBBlLHb3qMemyL0HeI+k+UTO5HOSScIliAtUJUoTqTbrsSxBOqrC1qgu+dC8sAqL2jTSB6gRpD+wEOUy67EuQ7wbviNeOOte3zAmwMldpAtUJYsZzyoQmXfYZzOS9ItHDPmVOCZilbhOoThALlJOnMemyz2B2gjTruA+uk4+cWgNMg6jQD4Kpb30U6QRxgqwQ6DOOpvogOEEGQN4EaqFf1BRcS+6vqW99mO8ziM8gPoOs+QpvI0FwWUQYuHVCGlyuLkFMX9lCZ0xT33wGaTeM8cyCx411cnrlObJdyfNMbRpETpBm5cUADuFDdU5DZ5/wjJioVOsEbyvvmlOje7TFCdIDPLISzKYenOakNWEOelY1m+xPDu9fXtrQmkMlvXw2Le3fECdITwzx0I717u2Co7Z3Breij68iQfUsdvbZ6S9EwYvK5dWMAWmIirQkcYIsSZvel+wIOEGyQ+oFLgkBJ8iStOl9yY6AEyQ7pF7gkhBwgixJm96X7Ag4QbJD6gUuCQEnyJK06X3JjoATJDukXuCSEHCCLEmb3pfsCDhBskPqBS4JASdIgzaJt7G/pLtLumsVgHNJil9yX86VdI6ks4OH/TeHIEMX9eisEyQBHubcr5J0kx7AetZ5IIB19SE9HPk5QSI9/l0IYfboeejWW5ERgVOD5fWjJF3cskwnSA2wY6uvTUsMPXkhCHR5yOUEqZTLsmqIOOaFjJ2taSZe9/G+bxUniKSdJX26+tsKnKcrEwE8Yd5e0vnG5jtBJD09uA892giYJysfgeeHR15HGLvhBJH0+jCDHGgEzJOVj8ApiZDdTb1ygkj6nKRbla9374ERAfwIWPXtBJFkBcGIvycrAAGruyfr2LCWNydoTH2jY6aEhfo+mpNCxmhLbl1ay9vUt/NCzJg/kHTmpoQj/rupb06QETUyQlUmpbf42FnLs3SNpfxtLAlHSmPqmxNkJG2MVI1J6RMRBAjmtBQzYeUEGWnkjlSNSektBqq1PEv3/i3YhO1iSThSGlPfnCAjaWOkakxKn4AgWBhz//KPI+FgqcaElRPEAmU5aUxKb0GQcnrevqUmrJwg7YGdcw6T0p0gP1ChCSsnyJyHe/u2mZTuBHGCtB9ay8jhBLHr0YSVzyB2QEtIaVK6zyA+g5QwmIdooxPEjqoJK59B7ICWkNKkdJ9BfAYpYTAP0UYniB1VE1Y+g9gBLSGlSek+g/gM0nYw30vS10MIOUI4f7tt5hmld4LYlWHCattmEHx9/WoVW5Dgo8Q8j2OaYzN0vCRcIF1gx3sWKU1K9xnEZ5B4tEKCl4Ugmwe1GMZXBAcHJ0o6UtKnWuSbMqkTxI6+CattmEGIvPvCELr5+nbsrpIST5MlONQzKd1nEJ9BQOBa1VLp4T2IUc96lqQHhvDP38pU3hDFOEHsqJqwWuoMcm1J7w/Om3c34PWZFu8UiIN+jxlv5E1K9xnEZxC8mj+0gRxflXRM5QH9I5K+U23U8WK/R0WA/dYQ67TgOf1BBuJNkcQJYkfdhNUSZxCc4OEMLyX4AGNPcskGHO8j6XWSbtqQjj3NYXZdjJbSpHSfQbZ3BmEG4PVaLJdK+p3qVMo6WomRclzwG/ZbDRl2k/Rxa2EjpXOC2IE2YbW0GeQkSQckMHqCpFfasdsh5asbSHKypId1LHOobCal+wyynTMIX/xvJpT/bkm/1GNEcjzM5vzGiTK4aPxGj7JzZ3WC2BE1YbWkGeRgSa+J8MFsZFdJX7Pjlkz5i5LelSAfdyPckcxFTEr3GWQ7Z5ATEjflxMIgJkYO+UAiVuM/tLydz9GOdWU4QewIm7Ba0gyCOcjtInz67D1iqF8cjoSfFv1IXBXibcxFTEr3GWQ7ZxAscdkT1OWekvjy5xDuVbhfqcuFDXuTHPV1KcMJYkfNhNWSZpBUhzE3ucyO2dqUNwwxHIkaWxfKpo65iEnpPoNs3wwC0bG+jSWnL9gx6uhLNCeIHUETVkuZQcYYvGPUYVdvOqVJ6T6D+AyyGj4+g6SJlBOXvqSeKr/pY+IziF09PoPYsSohpRMk81LCCVLCsLe3casIAiypDudeSoxRh13FV01pUnqHD8dDQlXPqYJ/YtKzLXLhUpZYTpArh+wQBHlG9WR5W0hR7+fpSyHIGMufMeroOwhzEwQjT2zQtlWOdoLYVb+NBHmnpF+2Q7S4lAc7Qew63UaC8Hzgx+0QLSrllyTdwQli1+k2EgTTGkxstlH2Jq67E8Su+m0kyBmS7meHaDEp/0LSk+iNE8Su020kyP0lvcMOUfEpOeTgWcPhki5fEkH8mHe4Y96nVG6Sih/9GzqA8/JHSOJg4odSygyCSTmPoXig9N8NHR3jEq9NHZY25x50uY95V+3bRdJTw5p8H0m3zN3oCcvDX8Hqz3tS7SiBIHgO4a053hJx8sbb81MSnWkzeLvqxFrH/lWbr7uhzV3b0ZRvKILkbmcx5ZVAkPMl/WwN0X8Pg+/WMyfI54MzB8IrrKSpzbkHihMkM6IlEMT61bam6wOhtQ5ruj5tSeV1gmRG1AnSDlDrwLema1f75tROkM0YtUrhBGkFl9li2AnSDtfZpi6BIMTjiIPf/KSkiyNUU2YR7FVY/+eQ24RjQMKz1YWb5p2j32jbRdFv9GEMkw2fQXJoulZGCQRhgP981O87Svpk9BtxPm4b/UbwnDdmwuw3wlEzjuLqQhtoS134/09Ev3020bZMzdqhGCdIZlRLIMgHJd096jc3vDtc6ASr0/eG3+4dpTtK0rMyYUbIA95G1IU20Ja67Cvp9Oi3fwk30kTSHVqcIJkRLoEg/5QIWPPIhB/el4bwaE+O8CEvr+FyCIOewV+XVJwQ/PUSIbcuOJwjuu7Q4gTJjHAJBHmRpD+O+n1s8OT+R9FvWF++L/rte5KIHBUvedrCyLKJaFRXjzISju1D0W8YuuHytC7PD7Y9R7SttEN6J0gH0NZlKYEgDwhOo98adYIwajdLdAxXoD8T/Z7aJ7SBcafw9f9oIo7hV6ILzFWZxFaPQyVgETvGy7ylEuQ6kvjw3Lcydfli+O9/Dp4uDwnRxL7bRplt05ZAEMDBxCSWPUMcwg9HP+JcGmvMWP48sfyyYvWXVdi2OD0zGDNZXZhRUr6AMZNpsiGztsOSbokEuYWkt1VhLGIMsM0j8jCPmwaREghCx4lYG29yX9IQixDQiAkSy99WyzLrF+d6kl4m6fcSZbFku3Pi99Q+CCM44ouMIUsjCDEi0f06A0lmE5bXrCqySykEeWIVL7AOAI6jAQ6v7nVh4J4j6RoJtL4s6Td5KbYBSQb0ayXdJJHufyTdLbGvwbM8XzKWZHX5/VDOX2fXXLrAJREEcqAnZpBNAu58QLOTpBSCYDrOmj9+/vnDl18Rgnz1CZ7TJJRFAE72FgT9/LHqPoNl253WRLelPIJ6Qp5Y/ipEsoIMdSE8WxySYZOy+/z7UgjC/pJj+7rB5yZcvhD2eUQnRrfZpBSC0OEjG06CbiUJ69lY2B+wicspLKF4FxFL6padNDhbe27OBmwoawkEsSyrmmDIvtwqiSCcTjGVXjNCh2NW1qDfT6DG8TB3FfSzjzDwKIt9Tyy0h435XaJ/4Ij5RlVg0T51t8lbOkHaLKuacMm63CqJIADyvIab8b+v4qCnQOPB1Ss2LJvWDUL2LTzgTz3SIt/rqn1NXAY3+NzkjyklE2TdzMGgT+1Fmn7PNpOURhAGW9MpVerYtT44fzcYOP6hpN2MI5YjZJZp66LYNr3XZm+zu7GenMlKJQh7Dk6rUiRgT8EKgUEfC4c05EvdiUEe8vXak5RIEG7Gz24YVdhKHb1hxLFpfnD1xp3//qkqPY/2CRfNxSJmJZvinz8zLPf+rKEuyAFJxpYSCcLgxgIidZTL4Ma+DnI0PSEgH/lTJCEf+TuTpESCMOgw3fiThtHHCdNjMsYmTFXTtKxaLQOfPTYzqvpKI4hl5lhdAq57Y8PMM8hMUipBfqRa+x/YMBA/V1nevinzQMXknVkjNr9fVYM5PPcs1oGauXnmevseWuRo97oNOfcZ3GvUb8g3PUKDJNybUG4snTfupRIEAH403F2ctMFKFlN5NthcHPYRTEiOqwwfm8o5WRLvT/63T0U981qJOTVB2pIDWDYRhDTZSVIyQVZjKWUOH4+z04Ij4jdUhErZdaXGJa8YGfDMUrGZe5x+LHP2TfwphSB86fdKdAZDT2aO1IbcQhCKZE9C+SkriNbvcpZAEEBhY/70TaOn+ncIdVZ1P3FJ9XSXJRtPYn+i+hsl7WcsD3N8NuxzkBIIgmUzPn9jqW/IU1haCbIiSdPGnZgnOIszyVIIQmfpOBv02NTcBESHRJjWHxBmF75Kc5ESCIK5EL7OsNJeSWrPEWPahiDkTS23MFS9ecKfQaP+lkQQOoknQ268MXvHfmsIAWRmLMxOrMu1Idph/cqm0k29B2FfyOUtwnt9lrCpZVW97W0JsppJ3h4+nJgCIdSL/Z5ZlkaQVcfxNHKYJC7ycgpvTVhS4c1kjlLCDLLCjcdPvNTkyByPNJukC0Eok2Uz7mo/lnhxuqnOxYQ/aOoopyW/Vm38uDBKbdzWgcTUz1qWM3aOjLlInLOURJC2OHYlSNt6dki/1BmkCRTcAuEeyCLcdWBCXZI4QTJra9sIQn+vMGI49Trd2Mwdki2VIOwt/ysChP0frz4HFSdIM7xOkEGHXqvCUzP/KM74nCBOkFYjdaLEbOjju4tR3vo7QZwgE435VtVi38ZpV11e3/AOp1XBmxI7QZwgm8bIHP499e4GjzO5j/Gv0lcniBNkDgTY1IYTJB0UJcK0KPUEelNZrf7dCeIEaTVgJkiMxxls5mLLiFY2VV3b7QRxgnQdO2Plw3Mi1th1+XblAmrwpwVOECfIWAO9az043XtslPn4cIn7210LbJNv2wgCNku9TFtq3/CcGTvfw4o692vRJG+2jSB+k37lMCjlEpR4L1hN1wV/Y7zdGcMZ+OKNFVNfBZ9ByiAI70V4S07Mx7owczCDjCI+g/geZJSB1qGSJlez+E4+r0N5nbI4QZwgnQbOwJmaPOXzYhTn4aPJthFkqRvZ1YBZyvKRY12Od2PhGS3PdUeTbSQInuA3udUn9DQx1kuTJRDkBdVr0Bh7nujiOnZU2UaC4Etr0yYPB3CxacOoiulYWekEwc0S7pli4e0HH7WLOuLSOds2EoQwBUSsXSdEqeobGbezUnpkLJkgbL4JI0E8x1iw5sV6d3TZRoIAMp7gCeyZEqbxlceN0RXSs8JSCcJ+g5k9RQ5CXkzl63gr70FWY3AXSY+r9hoMLPYdmDVY36z3HMuDZC+RILhpwlNMSt5YebccBCxLods6g1iwKTFNSQQhMhePoPA6kxJiSP7CWDfmTcp2gpRIg+Y2l0IQHLjxngMvhykheBHLLmK2TCpOkEnhz175nAmC6cjjqyCoxG5sEk6xHjVwfBcz8E4QM1RFJJwbQXDX86BqGcWMsM5ND20/IoTk5h5kNuIEmY0qsjRkKoIQKgKvlfzBmyV/E7Pc6iEff8cc5b4lCwoZC3GCZARzBkXlJgiDnECm1sCnXSAgQjEzB25eZydOkNmppFeDchMEj+upyLO9GlllPjHEtj88GB8SLm+24gSZrWo6NSw3QazltWnsqVWs+03WDG3KHCytE2QwaCcp2DqgrS8KuTxtClhq7eClVVhtiMFt+besGeeQzgkyBy3ka0NugmA8SJyVPTY0ERIQV54YgxdX9xf8N7ZVhLwrVtoQpNhOesN3QACXOTdwTGwIQBCCwxC00mU7ECAgEKdTLgYEIMgLg73LMwxpPckyEHh58FR46DK6MnwvIMiD53hBM3zXt7aGR4fHR6/a2t637DgEubqkc4MjLh4JuSwbAd5z3z4YCnJz7WJAYHXct2v1ym4nQx5PUiYCnHDtPbO47rNHsn4eXo9dPfuGewNbIzBKPI3WrZp5hvjC6DHhCBAgscJ0WQYC3w/L6KMqK9nLl9Gl8XqRulHl5vTVkvYarxle00AIfFLSgZL426UDAutMDrDg3Lf6w9rV9ycdAB45y2WSzgx7jTOqP7zMs4a9HrmpZVT3/zA32YyEyNiwAAAAAElFTkSuQmCC;fontFamily=Helvetica;fontSize=14;" parent="1" vertex="1">
          <mxGeometry x="310" y="270" width="60" height="60" as="geometry" />
        </mxCell>
        <mxCell id="e5PW4hlqIi2uyE3xQMOH-31" value="&lt;span style=&quot;white-space: pre;&quot; data-slate-fragment=&quot;JTVCJTdCJTIydHlwZSUyMiUzQSUyMnBhcmFncmFwaCUyMiUyQyUyMmNoaWxkcmVuJTIyJTNBJTVCJTdCJTIyaWQlMjIlM0ElMjJleHJvbm1ySjV6JTIyJTJDJTIycGFyYUlkeCUyMiUzQTAlMkMlMjJzcmMlMjIlM0ElMjJzdXJ2ZWlsbGFuY2UlMjIlMkMlMjJkc3QlMjIlM0ElMjIlRTclOUIlOTElRTYlOEUlQTclMjIlMkMlMjJtZXRhZGF0YSUyMiUzQSUyMiUyMiUyQyUyMm1ldGFEYXRhJTIyJTNBJTVCJTVEJTJDJTIydGV4dCUyMiUzQSUyMnN1cnZlaWxsYW5jZSUyMiU3RCU1RCU3RCU1RA==&quot;&gt;ASR&lt;/span&gt;" style="text;html=1;align=center;verticalAlign=middle;whiteSpace=wrap;rounded=0;fontSize=16;fontFamily=Times New Roman;fontStyle=1" parent="1" vertex="1">
          <mxGeometry x="300" y="330" width="80" height="30" as="geometry" />
        </mxCell>
        <mxCell id="e5PW4hlqIi2uyE3xQMOH-32" value="" style="shape=image;verticalLabelPosition=bottom;labelBackgroundColor=default;verticalAlign=top;aspect=fixed;imageAspect=0;image=data:image/png,iVBORw0KGgoAAAANSUhEUgAAAMgAAADICAYAAACtWK6eAAAAAXNSR0IArs4c6QAAH49JREFUeF7tXWmAHFW1Pqd6MiyBgAjyZJdFAUFREFkzXR0ggiA7PFkUUAKZrh7S1QkICg7LC9t0VTJdPWwCiqC+oIAgSyDT1RMWQQH1CQICooAssigRhGSm67xUZ5J0971VXVPTnZ6ZOvWz69xz7/3O/bqq7j0LAl+MACPgiQAyNowAI+CNABOEVwcj4IMAE4SXByPABOE1wAiEQ4CfIOFw41YRQYAJEhFD8zTDIcAECYcbt4oIAkyQiBiapxkOASZIONy4VUQQYIJExNA8zXAIMEHC4catIoIAEyQihuZphkOACRION24VEQSYIBExNE8zHAJMkHC4cauIIMAEiYiheZrhEGCChMONW0UEASZIRAzN0wyHABMkHG7cKiIIMEEiYmieZjgEmCDhcONWEUGACRIRQ/M0wyHABAmHG7eKCAJMkIgYmqcZDgEmSDjcuFVEEGCCRMTQPM1wCDBBwuHGrSKCABMkIobmaYZDgAkSDjduFREEmCARMTRPMxwCTJBwuHGriCDABImIoXma4RBggoTDjVtFBAEmSEQMzdMMhwATJBxu3CoiCDBBImJonmY4BJgg4XDjVhFBgAkSEUPzNMMhwAQJhxu3iggCTJA1aOiZVy76HCqT/tmX6XhlDXbLXY0CASbIKMAL2rQzO7AlgvMLRPhSuQ05F1qZad1B27Nc6xBggjQZ+2O7F7RvOmWTuwHggMquCJ1v5NPTftzk7ln9KBFggowSwHrNO7P2KQrCjbVyCHhXTo9/rV57vt9aBJggTcZfM4u9QJQSCILw21xa3bPJ3bP6USLABBklgPWap4ziwwS0j4Qgz+XS6o712vP91iLABGki/sm5iz6Oa7e9DkCTJN28YenqJ5vYPatuAAJMkAaA6KWi0+g/SAFlofQ+4n+sdHxyE7tn1Q1AgAnSABC9VCSzhXMRca7X/Y2XwKTubnWoiUNg1aNEgAkySgD9mqcM+1YCOMZLhtpLG+e1A95p4hBY9SgRYIKMEkC/5ppR/AsAfcpTZpKyrZXqeKmJQ2DVo0SACTJKAL2ad11p7+LE4I9+6h2EL/Sl1d83aQistgEIMEEaAKJMRdKwv4kAP/RTT4rSkZ/VsbhJQ2C1DUCACdIAEGUqtGyhFxCFA8JKWVLgsPws9VdNGgKrbQACTJAGgCgliGE/BAD71nnFOqkvrd7SpCGw2gYgwARpAIi1KtLGfRsNwlp1d6cQsTOXjl/VhCGwygYhwARpEJCVapI9iw5EJXZ/ANXnWrp6WQA5FmkRAkyQJgCvGfZ3AODSuqqRLrXSifPqyrFAyxBggjQBes0sLgCiY+upRoR8Lq1q9eT4fusQYII0AXvNsN8AgE0DqL7Z0tWTA8ixSIsQYII0GPikUfgsAj4VSC3inVY6fnggWRZqCQJMkAbDnsoWvkGIPwqmlgYsPREPJstSrUCACdJg1JPZwnxE7BLV0hIAnFLz++8sXf1ig4fA6hqIABOkgWC6qpJZ+3FE2F1Ui68A0JZVvyO8aKXV7Rs8BFbXQASYIA0Ec+alD34sttbQux4qnwaAz1beI4C387q6SQOHwKoajAATpIGApkz7ACJ4wEPlrwFg78p7CLgsp8fXauAQWFWDEWCCNBDQZNY+BxEkJ+P4MpDzDCBOr+2OowobaIAmqGKCNBBUzbRvB4IjBJWIdyLBRwR0XO09jipsoAGaoIoJ0kBQU0ZxCQGtX6sSAS8Cos0I4dvCvSFn+9zZ015s4DBYVQMRYII0CMxUz6KdSYm5H+LCRYBHKeTsR4i68ATB2O759NQnGzQMVtNgBJggDQI0afafjKTcJKHHMijFdsQYnUxAF4qvX840Kz2t0KBhsJoGI8AEGQa003xgJ4XaDgfEvWGITGuOWhwJ1pph5wBAcDxEhIdyaXX/ZNaehQimSBA40kqrd4ykL5ZdcwgwQQBgZt+DH2tbWlpIRCvKE7gX4iFWOn5vUFNohv0nANhJIm9ZuppKZgunIeL1wisWwCl5XQ3omhJ0NCzXKASYIO7fvmH/HACOrgH1BWz7cJdc1yFL64E9y7Q3HCL4p4fcty1dvV7LLj4asOT2U30hdlnpuPv04WsMIhB5gnRd9sBWTnubu4vUJqzdgDtMyWxhGiIuktlXidEevWclnkjOKx6IDglRhgRwfl5XLxmDa4OH5L5IRB0FzSieCkA3yHAImpZHMwtnA+Hlog7885tbdOx863FYSs4rfBkdfFR8xaIr83ri7KjbYazOnwliFG8BoBPkBlJOtPSOn9QzXsooLiSggwQ5op9amURZ9/AmgPudUnUhwjW5tHpmvT74fmsQiDRBOvP2espS+AsAyB0Gkc6x0okr6plGMwolAFTE74vV7bXcQ5vB4ODfJbp+Zunq1+v1Ue9+yiwcRYQpRPhBG611r6nv4+U0WU8V369AINIE0XrsI0CB2z1XBFHOyiQksR2rW3SaAzsp5AhPBlfCAWd6nz6t/N2R6n10Cg19+J7kNeweS49/dTSrUjPt2UBwZYWOp7Etdlyua6p0XKPpK2ptI02QVNa2CCHpaXTE26x0vHZ3q0pcy9onAYKsGOf7Q6Vl2109Z/o/3Abd3aS8PaVYkrxilc9Jwi48zSicAIBC8jkEmJ3T1WxYvdxuBQKRJohm2H8GgB28FwP+xtLjX/ZbLMls8XpEOk1Y+ID35/R4lfeuZtgk0fVHS1c/F3ZBakbhFgCUfUNdbenqzLB6uV3ECZKcNzAVHWfAdyEgvmal45v7yWiG/VcA2FryZLg8l1bd/FirLg+C/M3S1W3CLkjNsJ8BAKHWIQHcl9fVg8Pq5XYRJ4hmFl0P2/PrLYShUvumV8/Zt/yaVHvNuOyBDdrb2/4lu0cAX8/r6s+qCVJcJqlX+C9LVz9Wbxyy+2nzwW0HaUjuCUzwrJVRZSf7YbqKbJsJ8YqV6l28Mw2V9gYH3mmLQXFeWpUu2urFWngMAOuWYUZq2y2X2f8PshWimf0JIKVfunoc2MmarT5b1adpvw0EH6+WR8fS47EwKzBl2scQwa0ebT+0dHXdMHq5zWoExj1BkqZ9IxKcUmHUoqWrqp+RNWNgVwDn/4IsBAXg4F5dvU9KkKzdDQjfF+4RPGVl1F1rf9cM291SFipOhY0q1MzCXCA812sezhB8su9s1U1ix1dIBMY1QbSewnRQUFi8ikN79M5OPOGFiWYU0stT8BgBMSv7UkkJ4lnigK6z9MQMkSCF3wPg52t/DxtVqGXt+wBBCONdqZ9KtFd+TuKxgPNkMQkC45sgHjs4RJTJZxKeBNBM+z4g74VVhRNCt5VWxTiOFU6Osl0pAKCkpSf6BIKYxQEgmlr7Owb0+aps191tt709BV7zPOQEAAWU43v1jgW88sMjMG4JMrOnsHtMwcc9pn63pauHyu6ljf7NB0F5VfgXB/g3AgjhsgB4naXHxadBj70jKODuIAmXQsq+vZmORySvWHcBgDAuChFVmDL69yRQ/J8OAT0Bwi+fid9y3BIkaRTmI8gyGJaN9pGlq+vIzOddOxCvA6DTJW3utXT1kNrfk6b9bSS4TpSnd5dNnrLltWfs8R/JK5b8zAJHHlWYmmefQQ5c7bdEieiqfCbROfGXcfNmOC4Jkuzp3xoVxT1/8L6Q9rPSiYeFRZq1fwYIxwsNUZkG5Mh2pKQHeZph/xQA/lsygF9ZunqYbGAps9hHRMLhnRuzntfj3i4vEmWaUbwGgIQnW7UojtiNRTOL7tnJ9krJecTvO655S3JsaR6fBDEKFyCg9LtgJbwE9P28nrioEu4Z3Xet2z5lPfe9fYMaMwxautquGYV3AHCjqnsE/1x3aNLWV5yz378rf9fM4j+ASHByRIDzcx7xHSnTvowIzhGXgHOapU+7cSRLQzPs3wLAHv5t6E+WnqjK5ugnnzKKNxHQ6nIMCLdaaVVIVTSScY532XFHkNlXLpz8UazdPecQApxqjDFg6WpV5nQtW/gaIP5SYrTbLV09SjPt3wHBbrX3ido+k8/s77qllK9U7z1TaGgdieMhgF/l2pRROI8A/0fUD+l8Rp0XdDGdNW/RpiUn5noG1zk/of9YemJyEL2aYbsVsapO/t129XYEg+gezzLjjiBJs6gjUSAnPEtXq+anGbZbMFOIvSCg4/N6YkHSsO9EAPH1qARqZRIHbV5hOjji9rK7ELANtsx1qcImQJlYhq0RgBheS86FVmZad9CFpPX0HwyKck8QeYeUrfoyHa/4yXZ22+spU/BFAPpErRwCpHK6agXpayLKjDuCaIbtxn5vGMgYCKqVXp2dxMtvaiWRUqZtEYneveg4J+RmT3O/OcqXlrWvBITZ4hjoSUtPSDK7r5DsMosnO0Sy1ECmpSeEnFlec0wZxfMISHgSyeQdcvbty0wTdtQqZZNG4XAE9Mqs0pB4lUD2GoNC44ogSXNgBpJzjfCKgvAEkqTkAOEVViZefudPGcX9CWix5B+yP6erB7i/e+XWrT1X0QzbTfT2BYk9yxlMvOzssxCvt3RVyLropccjyYRUPMhZiJYt9AKix7jxFUuPbzUG1+4aGdIaIchplz+0/rrKoOc/a+CZxspxF1sIi5zgTEJxy5MQnsin1fKHrGYW5wKR4JZRWas8ZRa/TkRiiC1Bj5VR56x6gngcEFKdFD5evlsE8PO8rtYt+lnxBPsLoOiyIsURYY6VVnv8MNYM2y0Z5/0xX1q2rTVn+kuB7TSBBJtOEC3b3w1K7HQ3N22TcHuVSnQMxsSECG5/K1+fNMP+HYD4AV5au22jqzr3L6fs6eyx91MUeFB4QhHcks+oJ5WfMj41CJFot1wmIXVsXPEUW7wnQUlyuIf3WzWxI56vVz4pTmVtkCCfy3hX0u3K9u/joCJsh1frohMtPVE3Nr9J9m2p2qYSZMW26uTXJaXHGjZpBLjkjSVvXbzplI2fB0DhVQDBmU7Q9rrMOXF5ooVH8npi35WD6cwObKmg87JkcKscIFPZQhchzhdf1fD1nB73/RNI9SzemZSSLH/vo5auVtUO8Xy98opgdPNyIcjc5j29CoafrOcDUdV2uNg39Vl6wjvysmHWHHuKmkqQVHbgC4ROMxMzv2/patk9JGXYdxCAUDEWEeZRiV4HRZKWB/ECKx2/uNIsmln8AIhq3cRf2HgJ7NTdrQ5pZvGXQPQ10ZR4m6X7h+d2zXtwK8cZ+ptkGTxj6erOQZaHZhQMAEwLsgi3AoH4mobwlJUWPYsrXhfd77J6Ib9/sHRV2P4OMt7xLtNUggzv1zfT3XrVR3H5VQ4VwfV8eeDScwrgawQkuMArQ8qne8/ueL7SiEnDfhYBPlNtWPxQWTa4Y+93DnxZMwofAKAYZ0Ewx8r4v+unjUc2GoSl70gWzd8tXRW+rWSLSzNsGwCEyriEdAYSutuxk2ravb9s8vobXXvGHoO1+rrmD+zglJxV5zt+ixnbYp/IdU19a7wv+JGOv6kEKT/CA7lEjHTYZfmqzB11tiolHeCTlh4XNg40074fCA6sbeC6jitrrfuMPDMJgEOY6MvE3cXreXUveLr97Vf/IUtluupJ6Nd++JDUPSCs9QSAEpa2i5Fiy14zS9i23VXp/d1YlKpLM2z3TMg9G6p7EcFh+Yz6q7qCE0yg6QQpk2TFv3tH47DDO7FNWViZ1iZ1ub0FTaIXAbA9YD+XWboq7Gols4XrEVFIwgAOHIlACin4C5n+0tK2ja46d8XHvt/l5SJfe6gp0+G1Ve3Kuu01w3YzNwpJJhAontMTQvy9lrVvB5RUxJL9nQBcktNVIUQ5bTyyzmBpqW9ii3qYrLyP5Lwy1ooJrRGCBAVotHKaaT8KJC4QmV4k2DuXUYVUoJppfx8IhFNtIqcTMbYLAMm8Y4N/ZHtsEQeJKlx+SHrW8kNSmUvK45aufsmrBBwinJRLq1WpgYYr8r4peSUDt7goAdX80WDB0uPTKrEcTrl6AQAEcmcJYl8EvCunxyXfeEFaN15mQhEkadpXI8EZAWDy/Cj2zNVLdDEiHkfC94lbKQGNXDqeCdCvG2TlusELrvhBogo1w/4hAHxT0k/5aejlLQwA51q6WlVctNO0j1G84tndSr1Y85pJtGwSrr2hqe/zodt/cl7/VHQU/6wwQQCRyYzQ9SZsN0HaTTCCFGYgoXDSXguEu7OVS6viTlD5QHEgIXN7R4IfyGoMuroR4dhcWhVLG0gssPy939202FQYU4CoQs2w3Th6IdadiA7IZxL9SU8vZ3GbVjPsHwDAt4QhEi1GhIUyp0qocN1JZu1FiFD1RAmy4ILJ0LuWnqhJbhGsZaOlJhhB+r+IpHjGoq8Cz6c4Tqq3fzsaUl6QAH03AEhThGKbs32uK1ghTs0oPgdAn67VXy+q0GeLeNVhaCrbfzqhcq2gG+CuvK5WvbZohv06APyXQFTAi5BKCz0OD8tPIs2wXa9f1/u3WdfTlq7u0izlI9E7oQjiTlwzCn+T7eSsBgVfsvT4tl4grYj1xqVlx/Wqi54EwC9K2o0o8ZtnHEedqELNtI8AkuYRftPS1fJCT2btQxHBDeutvaqCvlJGoYMApSXmFMJEr95R1MyiIz5d4A6HcK6i0G9GsshGKksIp+fTqvuEa/k14QiSNAp3IKBwYLgSaUK4Jl+n3ICH16/7j/tJicVG5O2qGYV+AEyI//L+UYVatnARIAq7SAS0IK8nyhGSSdPrCYpL3ist3ezHc6Z/UP4TyRYvByShJgkRPGTp8amISJphuy7yVWczCOB6RbxEQPt4rNwR1XWU6HiWFLg7P2vsbCdPQILY30OAqtPxSkOgQ0fnZidu8/tr0oziYgCqd7pcVkFEZ+Uzid6gf3XeW6v+UYWaYUsTPiA5M3KZaeXY+OGDSDfTohAOEFNox/mzEs+teMrKnRMJ4JL88FauZtiuY2jZ/yzo5XXeErT9WJSbcATpMuyvOABexTffwLYttsl17eBbd9AnIbRgw5iCe86fFXfDXwNdXjtRRP5RhZphu0FYYp7gGk9br2KiiHBgLq0uGs5CKa/nPvyxP0wi9wM+8GvOSD2SA4E1BoQmHEEyPfbGSxX6u/TAkOgmK5OQbZNWmcLLNV5ir8Flk9efLHPj8LKtZ+yFz9amn0+bGDVZ7Acg4RUOEU7NpdUfepeLg8fe3CK+r1suzh171/zC7k7JM62SML16nsxjYK2HGsKEI8jwv58bQSfxjg1YUi1rnyGLLxEQJlpsZRIj8hDQsvYlgPDdWl2+W8+G7fVv/pilq3tV6kqZ9s1EcKK4glc4ZmqGLXVOXH4wODevJ1aN69juBe2bTtmkboVft5+xdrgXigkejSYkQbrm2fs5DriVnSoP5Hyj/SrxqfOaVikqdVfxM5BPwc8bLT0uuri4nsoeocCAdKmVTpxX2V/S6O9BUCSHlnSdM4QXKG3uh7Z4kYMH5WfHH6jSlbUfX74rVj/QzSPFUiMXaqt0TUiCuGAm59mHKg7OcIB2BaRcPu2dirQWfL+yalWyRIdbmcSdIzGeZhQ6ATAvaVPOrCLTpRm2/Iko2RpOGXaGAGQRhO53metHJvmuwCeXTV5vr9pXRc2w3QQTmt/8JvLTY8XTkS8BgeH8WeUtUb8rTPb0VHbgG4TOj0S9oq9TmehzF30c1oq9ighr17aROThq2cVHA5bEU30CN6z2BQ/nROmTMJUtnk5IwsFj5TgcgIP7PLLf18NvPNxngnhYycslpEL8eUtXhRPxekZPmQNHETkyj+Cyw2Ft+5RpH0Cub5Rw4cuWHhcqW2mG7cbgC7tqRPQeYjmOpTZeBEChr1izEguFvrP2XoTwa685TfSnBz9BfFZzyiz+hoiEBbuqCdJNVrr+jpiw6IyBgwgcYTECgJRwPrtO0gPK4V28N6VlqWXzRXgKYx/ukes6RPggn3HN4+u2f7DkLWmAmHsGpMBhY+lQr96fU5j7/ATxQC1l2LcSwDGe/54KnJmbpdZ1jKxt35Ud2MdBR5YkYZXLSGUbnxzAfnVL5GcmkskQQDavq5IcXyuEk0bxYZScnEfh6cFPEJ+/lKRh9yCApwt7TIl9fv6sqYGqVFV2c9a8xZ8rOSVJ5hP80NLjQihvyrCflbnYk9O+TX72vrL4dvekPEDe3uFR+ThuuhKyHUEEeNtR4NSJ/vRggvgQRDOLKSDyciH5wNLV9cI8sv0Kb9Z+dCeziz6NGCu7h9RcQ5auit8Sw0Ipo3gnAUkzzFfrwT9PgvbdVsZ4eM1H67GPgJibtxe3RKAFiENm76wDZdlfwkAyptvwK5aHeXwSXbsBIA9Y6fhBYSw7+6qHP/HRh8vcSD7hqo0q1ObZx4MDVZVyy40QF1vpuOcBpWYU8x6Rj9V9EuWsTKIrzDyi0oYJ4mHpVLbweUL8vew2Al6U0+Ni8c4Aq+bkKxdO3iDW/r5MtDaq0KtcQu2pd62ulFGcQ0BX1BsOIh2aSyfcOBe+PBBggngAM8u0Nxxyk7FJrtHu/XslbqitVZgyiguXJ7cTnlQOlRJ9mQM8M6gkjcJxCPi/fqt+eZrUv65TWrZLz7ALPDNEjgATxGdlLC/X9hICbFMrgm3rbJDr2mtJ2EXlRZDKqMJU7z1rOUPrvIoAG9f2Uy8DineK09WaiOCafEYVSkGEndNEbccE8bFsyrRNIphVJYLwmJWudhAc6eLQjOJ7ADRFaFfhOpK8ctHeGIsJZQsQ8flcOu57QBkoYR/CkVZa9Sp5MNIpTVh5Jkgd0w7n9Br2jsUCtinzK/NxhVkZmmm/AiRmqa+sVejps4V4k5WO13XZTxr2EnnV3nKU12vrDrXvWFtWLsxcJnobJkgLLKwZhacBUJKLd3VUYSprXyfLooJI38qlEzfUG7ZmFP8EQDvJ5BDxhlw6LmY0qac0gveZIC0wumbYrn9TVRyHO4zKqMKkaT8uKwqkKG1b987av+4ZRNKw70WAr8imR6Acn9c7FrRg6uOuSyZIC0ymmfZ9QDBd6Ho4qlC7/P7NYFL7K2JmFQh8QOlVj3G598hby5YN7XDtdw6UFiFtARxjuksmSAvMo5n2AlmpgpVRhSmz8FUiFBNFj+CAUjOKnQAkizu52dLV1aWeWzD/8dQlE6QF1tKMwg0AeKrYNZajClOG/T2SZGYZyQFlV09hd0cRY8oVcvbtrVPUswWQjNkumSAtMI1P0czheu3FXwCREF2IEIvn9KmB8+EOZzBxvzXc+oNvAeLFVjoulqFuAQbjpUsmSAsspZmFuUAolF4AWBFV6HVAWe+AUDaVlQVUK+u8t2DK47ZLJkgLTOdd59xNb1o6BaBN5kY/ZvLVtgCylnXJBGkB9KlssYuQhEKggPAiOnQRIcpi1q+z9PiMFgw30l0yQVpg/pQ5cBqRc72k63cI4cdY695SFvRPTdqCaUSiSyZIC8zcZQwc54Aj8bbFQQBy/a+EWA+HlK36Mh1uQmm+1iACTJA1CPbKrrqyA4c46HjEYeAS0ZER37X0+JgoKNMCuFraJROkBfDPNAodMY/6HPLh0N2Wnji0BUONfJdMkBYsgZk9hd1jkkM8r6Eg0HdzemJuC4Ya+S6ZIC1YAjPnFT4Tc/DZoF2TonTkZ3W4Saf5WsMIMEHWMOBud2ca/Zu3geLmrgp0hTkgDKSYheoiwASpC1HjBWZc9sAG7e1t/wqmmZ609ET9DOvBlLHUCBFggowQsEaIH7tgQWzTVzcZCqgrcNmGgPpYbAQIMEFGAFYjRTXDHgSAtvo66URLT/ykvhxLNAMBJkgzUA2gUzMK7wDgRvVEcRC2zJ2jBv5eqaeP748MASbIyPBqmLSXx25NB69burpZwzplRSNGgAkyYsga00AzbNdjd1d/bXSbpSeObkyPrCUMAkyQMKg1oI1nWbUK3QgwO6er2QZ0xypCIsAECQncaJtppn0/EBzop4fDY0eL8ujbM0FGj2EoDZph3wYAR/o15gPCUNA2tBETpKFwBleWMoo3EZBfdpFfW7q6T3CNLNkMBJggzUA1gM6UWewjopleokhk5DIJzwpXAbpgkQYgwARpAIhhVKSM4hUENMezLdExViYhq4YbpjtuExIBJkhI4EbbLGUULyCgCz31DA5ubp1z0Guj7Yfbjw4BJsjo8AvdutOwMwpAj0wBAvw1p6ufCq2cGzYMASZIw6AcmaLOrH2GgnC1tBXRT61M4oSRaWTpZiDABGkGqgF0dvbYJyoK3CwVdZwua/Y0zoAYAMdmizBBmo2wh/6kUTgcAaUVnhSH9uidnXiiRUPjbisQYIK0aDkks4VpiLhI6J5omZVJrNWiYXG3NQgwQVq0JHzqCBYtXVVbNCzulgkydtbAcP3D6nrrw0V0xs4ooz0SfoK02P5atngsIpxMCA84RPf26eoLLR4Sd8/fILwGGIFgCPATJBhOLBVRBJggETU8TzsYAkyQYDixVEQRYIJE1PA87WAIMEGC4cRSEUWACRJRw/O0gyHABAmGE0tFFAEmSEQNz9MOhgATJBhOLBVRBJggETU8TzsYAkyQYDixVEQRYIJE1PA87WAIMEGC4cRSEUWACRJRw/O0gyHABAmGE0tFFAEmSEQNz9MOhgATJBhOLBVRBJggETU8TzsYAkyQYDixVEQRYIJE1PA87WAIMEGC4cRSEUWACRJRw/O0gyHABAmGE0tFFAEmSEQNz9MOhgATJBhOLBVRBJggETU8TzsYAkyQYDixVEQRYIJE1PA87WAIMEGC4cRSEUWACRJRw/O0gyHABAmGE0tFFAEmSEQNz9MOhgATJBhOLBVRBJggETU8TzsYAkyQYDixVEQRYIJE1PA87WAI/D8CB5dfCSe+3AAAAABJRU5ErkJggg==;" parent="1" vertex="1">
          <mxGeometry x="180" y="270" width="60" height="60" as="geometry" />
        </mxCell>
        <mxCell id="e5PW4hlqIi2uyE3xQMOH-35" value="" style="shape=flexArrow;endArrow=classic;html=1;rounded=0;fillColor=#DAE8FC;strokeColor=none;fontFamily=Helvetica;fontSize=14;gradientDirection=east;gradientColor=#6C8EBF;" parent="1" edge="1">
          <mxGeometry width="50" height="50" relative="1" as="geometry">
            <mxPoint x="380" y="299.58" as="sourcePoint" />
            <mxPoint x="440" y="299.58" as="targetPoint" />
          </mxGeometry>
        </mxCell>
        <mxCell id="e5PW4hlqIi2uyE3xQMOH-36" value="&quot;The bottom of the wall&quot;" style="text;html=1;align=center;verticalAlign=middle;whiteSpace=wrap;rounded=0;fontSize=16;fontFamily=Times New Roman;" parent="1" vertex="1">
          <mxGeometry x="440" y="290" width="170" height="20" as="geometry" />
        </mxCell>
        <mxCell id="e5PW4hlqIi2uyE3xQMOH-37" value="&lt;span style=&quot;white-space: pre;&quot; data-slate-fragment=&quot;JTVCJTdCJTIydHlwZSUyMiUzQSUyMnBhcmFncmFwaCUyMiUyQyUyMmNoaWxkcmVuJTIyJTNBJTVCJTdCJTIyaWQlMjIlM0ElMjJleHJvbm1ySjV6JTIyJTJDJTIycGFyYUlkeCUyMiUzQTAlMkMlMjJzcmMlMjIlM0ElMjJzdXJ2ZWlsbGFuY2UlMjIlMkMlMjJkc3QlMjIlM0ElMjIlRTclOUIlOTElRTYlOEUlQTclMjIlMkMlMjJtZXRhZGF0YSUyMiUzQSUyMiUyMiUyQyUyMm1ldGFEYXRhJTIyJTNBJTVCJTVEJTJDJTIydGV4dCUyMiUzQSUyMnN1cnZlaWxsYW5jZSUyMiU3RCU1RCU3RCU1RA==&quot;&gt;Transcription&lt;/span&gt;" style="text;html=1;align=center;verticalAlign=middle;whiteSpace=wrap;rounded=0;fontSize=16;fontFamily=Times New Roman;fontStyle=1" parent="1" vertex="1">
          <mxGeometry x="475" y="310" width="100" height="30" as="geometry" />
        </mxCell>
        <mxCell id="e5PW4hlqIi2uyE3xQMOH-42" value="" style="shape=flexArrow;endArrow=classic;html=1;rounded=0;fillColor=#DAE8FC;strokeColor=none;fontFamily=Helvetica;fontSize=14;gradientDirection=east;gradientColor=#6C8EBF;entryX=1;entryY=1;entryDx=0;entryDy=0;" parent="1" edge="1">
          <mxGeometry width="50" height="50" relative="1" as="geometry">
            <mxPoint x="250" y="149.40999999999997" as="sourcePoint" />
            <mxPoint x="190" y="149.40999999999997" as="targetPoint" />
          </mxGeometry>
        </mxCell>
        <mxCell id="e5PW4hlqIi2uyE3xQMOH-43" value="" style="shape=image;verticalLabelPosition=bottom;labelBackgroundColor=default;verticalAlign=top;aspect=fixed;imageAspect=0;image=data:image/png,iVBORw0KGgoAAAANSUhEUgAAAMgAAADICAYAAACtWK6eAAAAAXNSR0IArs4c6QAAGntJREFUeF7tXQuUHGWV/m7NZAIokOnqBDcJZro6AiIiGFBARR4KLKA8RMA34DE8hCAikK6OSyPTNRBRJEGFuKIiCAoCIggI4SEu4EoQWSCA6eqJBDxJujrhsQEmM3WXSgY2hHS9prq7uurWOXPOnKnv3v/e7/7f1Ot/EOQQBoSBhgyQcCMMCAONGRCBSO8QBlwYEIFI9xAGRCDSB4SBcAzIFSQcb2KVEgZEICkptKQZjgERSDjexColDIhAUlJoSTMcAyKQcLyJVUoYEIGkpNCSZjgGRCDheAtlle2bvY9NyiQCtgFoEgPbEHgSgG0YGP07wMByAlYAWM6gFQQsB3iF83eF7RW1wQvuDRWAGAVmQAQSmDL/Bn19pc1eVob2t4kOI/CRYKj+rV2/XlkMukFh/t077Z6Fg4OlVyPxK07exoAIJOJOkckXtyXw/mDsD+BIAFtE3MTG7tYAuAGEhQxaWK+Un21ye6lyLwKJqNyqpu8PwiwwDgWgROQ2qBsbhFvAmGeZxsKgxoJ/OwMikDH2igm5cz7QRV2zAJwwRldRm18xwiPzVlcv/HvUjtPkTwQSstrZbc+ezOO6HWE4P5uHdNNss1cAzKO1w/Nqz859vtmNJdG/CCRoVWfMHJetZ2cx4XQA2wY1bxP+WWJcUsvU5mHRgrVtiqEjmxWBBChbpk8/kBQYAD4YwCxO0EfYhl4fNO6IU1BxjkUE4rM6qqafA+ACn3Av2IsgPAfm5wBa9sbvxMoyx5DJngqiKWBMAXiD37GVl2Of52dbpnGhT2yqYSIQH+XPaPo1BBzrA+oC4bsZdIsCvrVmDjwTxldWK2xngw4h8KEA7RfGxxs2DFxbN43PjcVHGmxFIC5VnpTTtxkhOF+tdwjeGajO4D8C/Edl3Pg7ak+XIn1Izm5fmmyvfe1AgA4g0AEAZ4LHiKe6GPusqBrLQ9imwkQE0qDMWU0/hIFbQvQC58PdfHTTfOuZ8nMh7AObqNsVp2CYTwPg/AT+MEnAoTXTuDVwwykwEIFsosgZTT/3dWJKQevPjAWsYP6qivF4UNso8L15fSeycRoRZgb1x8B5ddMInHPQdjoNLwLZqGJZrbgbg/8apJBE+A3ZfOnK6sD9QeyahZ2YK3yMFTqVGUcHaYNAu9fM8sNBbJKOFYFsUOFe7ZytFXStDlD0l5j5hHp14PoANi2DZnKFo4joCgBb+m3UxsiEVeaFL/jFJx0nAtmgwhlNv4+AvX0WfSlIOcGq9N/tE98WmJqfsx/YdkQyzU8ADPypbhof94NNA0YEMlrlrFY8j8H/4afoDDwKpefj9SWlF/3g243JTC9tBXvIEf8ufmIh0HdqZvlcP9ikY0Qgr79yUvP6cWD8zFexCXdYFeMgX9iYgdS8fjsYB/oKi3C8VTF+7gubYFDqBTIxV9zbJr7PT40ZKNVN4zw/2LhiMppeIsDX1UFh+vjKavlPcc2lFXGlWyAzZo5TV2Uf8jO2iol+Uq+UA78+bUURg7aRyRcXEPPXfNg9YvXW9kjzAMdUCySb089kwkVeHYVBf6ib5UO8cJ10PqMVbyXwwV4xE+NbtarxPS9cUs+nViCj8zmcq4frkHUG/X2LoTV7Llt2sTO3IjHH1KlnbL6mZ4sHCfwBj6SepbXDe6R1PklqBaJqujMy1xmh2/BgoMaM/VdVjccSo4wNEunN6TsTYSEBWY/8LrRMY3YSOfDKKZUCGZ0m+6D3TED+jGUO3OBFYiefV7XCkQD91iOHV0Z4ZM80Tt9NpUBUTf+p1xxyZ/hIrWIc08md32/s2bz+ax/DUq6wTOOrfn0mBZc6gaxbfQS4y6uACvPecRlb5RXrWM87Y7dsIj+vcz+RttVS0ieQvP47MD7t+uzBWFCvGieOteN1kn0mp1/uOQqYcLNVMQ7rpLzGGmuqBLL1tDm57i57ice6VWtswofbNWR9rAUNa+8MlVcYf/GYT2IPjyjTX1jaXw3bTqfZpUogWa14EoN/LG9sNs2Anzd7BDq5ZpYv67SOHjbeVAlE1fQbARzuQtZqdNNOrZoJGLZozbIbnZnoTPaa4NLGTZZpHNGsGOLmNzUCmTy5tMVrmw3VPF7t3mCZxmfiVqRWxqNquvPK11lTuNHxyvhXe7LPP19yphYn/kiNQDL54jHEfK1rRRmnWlXjh4mvukuCak7/OgiXur7EIDq2Xin/Og08pUYgqla8CuAvuBV1hKlvdbW8NA2Fb5TjhFxxWhfxoDsHdLVllr+YBp5SJBB9lce99QOWaXwkDUX3ylHV9P8CsJfbs5plGr1efpJwPhUCcXZ2YkW5x/32iopWtewsK5r6Q80VdRCX3Ygg2943DTtdpUIgmZx+NBHc75lHlB2tpf2LU68OZ4bltDnvRZf9pOtzCOOYetX4TdL5SoVA1Jx+GgjzXIr5omUaWye92EHyUzXdWdmk8VrAjFlW1ZgfxGcnYlMikOL5IJ7TsECExVbF2LETC9ismNW8/iQY723on6nfqpa/3az24+I3FQLJ5IoLiNymmPJdljnwybgUJQ5xqFrhToA+0SgWZvpJvZqMKciuz1pxKEazY1Bz+k0guA2y+7llGsc3O45O8q9qurPKy3GNryD4nVU13EYldFK6LjcXiUjDPQk1pz8Iwh4uLJStitH4FiwFHG2coprX+8EougjkIatq7Jl0alJyi6VXiKA1LiafYpkDXoMYk94X3pKfqhVOBuhHjW+xYNarRj7ppKRCIGpOfxmEdzQqJjF9ulYt/z7pxQ6SXzZX/BQT3+xyBflfq2q8M4jPTsSKQACIQN7edUUg6zlJhUAyObnFCvrfW26xUiQQeUgPKo916xXLQ3pariDymjeEQOQ1b5puseRDYVCJyIfCVN1iyVCTwAKRoSbpuYLIYMWg8gBksGKKriB+hrsTePuaOfBM8K6UPIusVtiOQU+7ZcYy3D05hfczYYqBb9ZN4+LkZB0+k4ymn0HA9908yISp8PzG0lLN6zUw1MbB8d2WOeAsS5r6Q9UKCwHaryERBMuqGF4rwieCx1R8KHQq5WdXJRrXM6X2dOn5RFQ2ZBLZ7UuTee3Qc663VwnabcuLptQIJKvphzBwi2vhwSfUzQF/m3l6Mduh5zNa4XjCur3VXS4gOLRmGrd2aIqBwk6NQPr6Spu9pAxZbmvPMnBt3TQ+F4jBhIEzmn4NAce6pLVmS7tHHRwsvZqw1DeZTmoE4mSvavovAbis50R1dGPndC89iscAzrh0/qss0/hSGsTh5JgugfjbDz212435WbwaKds/PVUCyeSL2xKvWzVQcbuFkO0PGrJjM1FfvVJ+Vq4gCWVAlQ10NllZ2UBn0x0+VVeQ0ecQ2YJto74gW7C5vrFL6KXCJS3ZxPOt5MgmniKQtzDgdxtoZv5svTpwfZL/hWRyhaOI6DqPHGUb6CR3gk3l5uuNDfASSDncqvTfnUR+1Pyc/cD2TQC29MgvtW/2UvcM8kZHyG579mQe1/0QgG09OsdSVnp2ri8pvZgkkWSml7Yie+gxANM88nqW1g7vUXt2biqH4KRWIE6nyOb0M5lwkVfHZ+DRumns6oXrpPMZTf8bAbt4xUyMb9Wqxve8cEk9n2qBYMbMceqqrHMV+aBngQl3WBXjIE9cBwDUvH47GAf6CPURq7e2BxYtWOsDm0hIugWyfvjJ/q8vS+p0mG6vCjNwXt00Sl64OJ/PaPq5rxfdOwfCMBgHWaaxMM75NDu21AvEIVjNF2eB+RI/ZHMHD/X2M+T/TQ6ITrcqZbc9VfzQ1fEYEchoCTOafhkBJ/qpKIP+sMXQmqOWLbv4FT/4dmOmTj1j8zU9W1xP4IP9xMLA5XXTOMkP1g+mVzvn/Qp1zWAbO4L4fQqUfzHhMRoZeSzu27iJQDaocFbT72fgo36KzqC/M/OXV1UN501QbI/enL4zEV1J4A/4CZKAP9dM42N+sG6YrDbnUIAPZ7AzcqHPBfsSgW8HKXfVKuUFY203ansRyEaMqlrR8hju/aYFAzUCn2iZAzdEXZgo/Kla4UgGXU6Az+mxVLfMssu0ZO+oHGEw7JkAPuWN3hhBi4iwIE5CEYFsLJDtilMwzMuCFJcIvyGbL11ZHbg/iF2zsM7YKlboVGYcHaiNbpo6lrkwGU0vEXBuoDY3Db7JMo0jIvAzZhcikE1QmJle2JNseiAou8xYwArmr6oYjwe1jQLfm9d3IhunEcH5Dx7oYIX3qi8ZeDCQ0QbgCMXxhtfVcdiLXQTSoEdsky9NGubXFgE0NWCnWfP6i7H56Kb5Y/lvHKRNdf1V7zQAzs8WQWwBXtZN42csr5RWBLP7f7SfZZVC+v69ZRqfDmkbiZkIxI3GfUrd2X++9isGfTYE26sB3A3G3SOgW1ZXy0tD+GhoMiFXnNYFPhQEZ3ke52dCUP8Evq727vGfx72l4aC2b+Cdq5YC3AHG5LA+XO0Ibd0eTwTio6pqrnAJiGb5gLpBHgDTrbDpRmtp/+IwvtRpc94LhY8A8SEA9grj400b5nlWdeD0MflwllPyXuRhrE2AyN6tVrlg0ZgdhXAgAvFJ2ug9trOppecXdx8uXwThOTA/B9CyN34nVta9HGCyp4JoChhTAN7gd2zlw7cXZJiB/rppnOcF9DqfzevHMuMaL9zo+eVwXo0THgPbUwg0A8B2fmydZ7t61fD1jcqPvyAYEUgAtjL54l4K8xwG/j2AWWygBNxmE/XXK+XALyA2lYSqFR4C6MNeCTLRRfVK+ayNcVmteBKDvwvAc6/DEdvOrR68wFlPoKWHCCQE3Rmt8A1imgNyW8o0hONmmTAsJu6vmwM/iKqJCX2z+7oUperlzzINzz6masWHAXauKI2PNq2m4hm8FwFpPT9Rm/MeG7Yz6O/zMefgVwqU0kqz/x9Rxqn6WEKJiE7089FvYl/pXbYy9CSAXpcYf26ZxvFR5uDHlwjED0ubwGS14hcY7AhkekgXrTFj+huBSrVqf+MtnUNEkskXv0vM33IxXWmZxiS/rrN5/SxmzG2IJ1psVco7+vUXFU4EEoBJNVf8EMBfBK373tBRB4FqNrgfyvBv60vmBhopsKlE1XzxSjA3XmGR+V6rOrCvX5IyffqBpOB2N7y1Wc94PFka8uszCpwIxIPFbO7s7YGuTzHRUQA8H0ijKErzffDPFOD6lebAH8K2pWrFOwA+oJE9ARfXTOObfv2PTgF+wQ1PoN1rZvlhvz6jwIlAGrC4bog2uk4G4Pwk9fgRjaC/ttT4V9AE1VzhHhDt08guzOQyVdPZVSC2vW+rh8eLQDaqyMT87OnMyim8XhibBe04HYj/B4jLVmXgF0FiF4EEYSsB2Mz00lSyh04ZvWIEHrbhg4JnwFgMosUgXqzYXGWle41Nw6/Yw7xmfNdma+zxWLPySazJbr/mHSNrqZcZvd1MvdzV1cvMvQqj1yaeDCi7EXh3AJv7aNcnhK7GyNqytXSur6/8IhCftCYBtn51E+eNDL0rinxGH4jvAnAnlK6/1Jc89RRw3UgUvjf0kc3PngF0zbBtnkHkfJn2+JbgHcBKEPX7mWorAvEms+MR6xZsAAoAotib8B4m3MNM96wyy39uBznrx2rZRwL8GRCFXqaIgVu7FeX0FUv6K43yEIG0o8ItanOrqaVM9/ghnRhnjrHJ/wZwE2y+0RoceGqMviI1n6gVDmYoR7IjlhAjfQEMM3hmoy3pRCCRlis+ztZ/4HOuGvy+kFE5G1w6y3Xe2AlL4mSn6f/GCo4Ewfmo5zY3/G10uC3eIAIJ2XvibKZqujMWKdwQb8JiMM+ncSNX1Z6e+1Kc89xUbKNjp5zpsMf5jP2vwyPKMS8s7d/keCsRiE8WOwG2bmcp8KVghJmdtvz1/dXnc1fP/CSszzs6hsoRSuOrybpF4/gYt8UoRCCd0PN9xDgxV9zbJvtSgN7vA74hZC2B5g/bI/PbMcw6YKyB4J5XEx+z+EQggSiPJ1jNF74Cpkv9zDfYKIObSMH5tSXGI/HMLJqoNnU1cRbFs+1xX1g9WHKmDDc8RCDR1KBtXkKusrGawedFOW+ibQT4bHh0wYf+0WeTf4HsL1qVCzz3QxGB+CQ4jrCQD+M3KTbOWzloPBrHnJodk5ovHkE2a363OhCBNLsiTfKv5vRfgPDlAO5fZvC303TVCMCN3GJFQVZcfKia7kwKCrLk5QNMdFZUc7TjwkMr4pArSCtYjrANr4JtoqnLlM16zlr5ZOnlCMNIjSsvvmW4e4y6glexNgr1ZQKdVTPLl8UohY4LxYtzEUhMSqpqujE64NBHRPQEE2bKLZUPqjwgIpCxc9h0D+r04mGw2RkX5eOgJ1ixj64vGXBWz5BjjAyIQMZIYLPN1b7Ch6GQswGnj4OeWDu0Zu8Xl11c9wEWiA8GRCA+SGoXpFc7990K1jpzLrz2OAdAT1hmead2xZrUdkUgca3sjqUe9bWhm31uY/xXyzQ+FNdUOjkuEUhMq6dq+o/8rDTi7CFYN8u7xDSNjg9LBBLDEmZzha8xkedGj87egXXTmBjDFBITkggkZqVUtdm7A8of/UwfVch+z8rKBUtilkKiwhGBxKmc+5S61X8OOeLwXMrSJhy8qmLcFqfwkxiLCCRGVc1q+vcZOMMzJMIsq2LM98QJYMwMiEDGTGE0DtRc8UsgvtKHt7Ysj+8jrkRCRCAxKOvEHUvvtF8dcrYm9vqOMThi2/smbWpsDErQMAQRSAyqo+YKc0B0vmcobdp9yDOuBANEIG0u7ugi0g8ykPUIRW6t2lCrjFa4lUAHN26aL7DMAWfVSl/HhL7ShC5laJUbmBTMaPU6AbFd3V3NF+eD+VQPduXWylf3ix6UyelzifC2jTk3aOkqyzQab7CzUUhqvnA4mG50ifQ1yzRavtp+LAXSqxU/qoDv9yorA1+tm8YVXjg5Hz0DGU0/gYCfNvZMiyyzvJvfljM5/XIizGyID7hjld92vXCxFIiq6dcBcHZ0cjnoFsssB5le68WFnA/AwPr1xvg+1wr53MTTWaWeWXHdOarRVtIBQg4FjZ1AMvnZBxErnh/6yOZ9aoMDrgUKxYgY+WJgdLkgr70On4LNx1mDA39p5NRZSHxcz9B/AjjCtWHmL1vVgV/6Ci5CUPwEounXEHCs638m8A9q5oD3h8MIiRJXb2fA35UeL4FQXPtaz9UvLiu9ZT7O6E7BswC4j7gmPE/D2C3MVnFjrVusBJLpK+5BCjvfPdyOpeimj1jPlJ1V1uVoIwO9+cJHFCb/e6Ew3/tmuEQ7A8j4CT/M/HY/fv1gYiUQVdN/DOAk90stTrWqxg/9JCeY5jOg5vR5Td0Wu41XD4e92AhE7SvsAIX+5r5xJj9hvXv8Lri3NNz80ksLfhjY5j2zteGRrgcBnuQHHxTTzqtHvASiFQcAnu367EE4u1YxvhuUZME3lwG1r3gYiK8G4R2RtsS40qoaX4nUZ0BnsbiCbLlDQe0ZUh4HuPEmmoTnuzG06/LKRSsC5ijwFjCQzev7ss1XgWhyJM0x5ltVw3mAb+sRC4FktMLxBPL64DdgmYbeVrakcVcGRie1OSOvdxgjVbGpdSwEomr6DR7vwV8hVnatVfufHiPxYt5kBtZ9HxnBKWD+OoCtAzb3e4KyoGb23xLQrmnwtgtk0vQ5+RHbdnaI7XbJ8jLLNE5uGgviOHIGstufvSWv7S4C6zYP7fJo4EbYfKHbB8XIA/TpsO0CyWjFbxD4Yrd4mXFAvWrc6TMngcWIAc+NjNo0xsovRW0XiKoVFwK8X6OAGXi0bhq7+k1IcPFiQAQyhnpkp+sfZBuL3FwQ4/xa1fiPMTQjpm1kQAQyBvI9yVv3JZN2r5ll15GeYwhBTJvMgGeN5RarcQXUvH67xxKi91im0fD2q8m1FfcRMCACCUuis8buq0MrAWzV+PmDzqib5R+EbULs2s+ACCRkDdT8nP3A9kI3c5vw/lUV4/GQTYhZDBgQgYQsQiavf5sY33Exr1imMT2kezGLCQMikJCF8Hr+YODauml8LqR7MYsJAyKQkIVQNf0F9+cPPkP2Lg9JbozMRCAhijFx+uxdbVt5xM1UsbHrykHj0RDuxSRGDIhAQhTDe/Qu1S2zrIZwLSYxY0AEEqIgGa3wPQJ9s5EpAbfVTMNl1b4QjYpJWxgQgYSgXdUKdwB0gIvpJZZpfCOEazGJGQMikBAFUXOF59xnntHXLbPs7EUoR4czIAIJWMCtpp6RGdezueVupnzSMvvvCuha4DFkQAQSsCgTc+fsbVOX64qII0x9q6vlpQFdCzyGDIhAAhZF1WafAihu61q1ZRXvgGkI3CcDIhCfRL0BU/N6PxjOVMwGB/2PZZadVffkSAADIpCARczk9YuIcaaL2Z2Wabi94QrYosDbyYAIJCD7qqY7t1enNL6A8M1WZeCwgG4FHlMGRCABC6NqurPpygmNzGSQYkBCYw4XgQQsUEYr/IpAbqN0r7BM46sB3Qo8pgyIQAIWxnOROOJLrcrAaQHdCjymDIhAAhYmmyvcxkQHubzFmmuZ5XMCuhV4TBkQgQQsTDP21w4YgsBbyIAIJCDZIpCAhHU4XAQSsIAikICEdThcBBKwgCKQgIR1OFwEErCA6wTicjDRfXXTKAV0K/CYMiACiWlhJKx4MCACiUcdJAphoCkMtH37g6ZkJU6FgYgYEIFERKS4SSYDIpBk1lWyiogBEUhERIqbZDIgAklmXSWriBgQgUREpLhJJgMikGTWVbKKiIGWCiSrFbaLKG5xk2IGaubAM61Kv6UCUbXiwwDPaFVy0k4SGaBFllnerVWZiUBaxbS0ExEDIpCIiBQ3yWRABJLMukpWETEgAomISHGTTAZEIMmsq2QVEQMikIiIFDfJZEAEksy6SlYRMZBggQBo6WvliCoibuLHALcqJOmwrWJa2ulIBkQgHVk2CbpVDIhAWsW0tNORDIhAOrJsEnSrGBCBtIppaacjGRCBdGTZJOhWMSACaRXT0k5HMiAC6ciySdCtYkAE0iqmpZ2OZEAE0pFlk6BbxYAIpFVMSzsdyYAIpCPLJkG3ioH/A208/V/3flucAAAAAElFTkSuQmCC;" parent="1" vertex="1">
          <mxGeometry x="260" y="120" width="60" height="60" as="geometry" />
        </mxCell>
        <mxCell id="e5PW4hlqIi2uyE3xQMOH-46" value="Scrape" style="text;html=1;align=center;verticalAlign=middle;whiteSpace=wrap;rounded=0;fontSize=16;fontFamily=Times New Roman;" parent="1" vertex="1">
          <mxGeometry x="160" y="220" width="60" height="30" as="geometry" />
        </mxCell>
        <mxCell id="DIqvzW5DYpJaR3z1f87_-1" value="&lt;font style=&quot;font-size: 16px;&quot; face=&quot;Times New Roman&quot;&gt;LS-UAP&lt;/font&gt;" style="ellipse;whiteSpace=wrap;html=1;aspect=fixed;fillColor=#d5e8d4;strokeColor=#000000;strokeWidth=2;" parent="1" vertex="1">
          <mxGeometry x="495" y="120" width="60" height="60" as="geometry" />
        </mxCell>
      </root>
    </mxGraphModel>
  </diagram>
</mxfile>
